<svg xmlns="http://www.w3.org/2000/svg" xmlns:xlink="http://www.w3.org/1999/xlink">
<defs>
<rect id="SVGID_1_" width="457" height="394.412"/> 
 <path id="SVGID_3_" d="M162.762,86.044v39.961c0,34.793,28.012,63.26,62.247,63.26h0.001c34.236,0,62.247-28.467,62.247-63.26
					v-9.608h-43.081v6.805c0,9.469-7.624,17.217-16.94,17.217h-1.832c-9.319,0-16.942-7.748-16.942-17.217V86.044H162.762z"/> 
 <path id="SVGID_1_" d="M162.762,86.044v39.961c0,34.793,28.012,63.26,62.247,63.26h0.001c34.236,0,62.247-28.467,62.247-63.26
				v-9.608h-43.081v6.805c0,9.469-7.623,17.217-16.94,17.217h-1.832c-9.319,0-16.942-7.748-16.942-17.217V86.044H162.762z"/>
</defs>
<symbol id="aulogo" viewBox="0 0 457 394.412"> <path d="M7.068,285.172l13.14-58.838h7.024l13.14,58.838h-8.43l-2.479-12.644H17.977l-2.479,12.644H7.068z M27.894,264.595
	l-4.132-21.32h-0.165l-4.132,21.32H27.894z"/> <g>  <clipPath id="SVGID_2_"> <use xlink:href="#SVGID_1_" overflow="visible"/> </clipPath> <path clip-path="url(#SVGID_2_)" d="M70.865,243.274v41.896h-8.429v-4.049h-0.165c-0.883,1.322-1.942,2.411-3.182,3.265
		c-1.239,0.853-2.824,1.28-4.751,1.28c-1.048,0-2.096-0.18-3.14-0.537c-1.048-0.356-1.984-0.949-2.811-1.776
		c-0.826-0.826-1.487-1.886-1.982-3.182c-0.497-1.294-0.745-2.878-0.745-4.752v-32.146h8.43v29.006c0,1.543,0.357,2.755,1.074,3.636
		c0.715,0.882,1.735,1.322,3.057,1.322c1.598,0,2.698-0.496,3.306-1.487c0.605-0.991,0.909-2.424,0.909-4.297v-28.18H70.865z"/> <path clip-path="url(#SVGID_2_)" d="M123.754,268.396v3.636c0,1.818-0.345,3.54-1.033,5.165c-0.691,1.626-1.641,3.072-2.851,4.338
		c-1.213,1.269-2.633,2.273-4.256,3.017c-1.626,0.743-3.376,1.115-5.248,1.115c-1.599,0-3.222-0.221-4.875-0.661
		c-1.653-0.439-3.14-1.212-4.463-2.313c-1.322-1.101-2.411-2.521-3.264-4.255c-0.855-1.736-1.281-3.953-1.281-6.653v-32.394
		c0-1.929,0.331-3.72,0.992-5.371c0.661-1.653,1.597-3.086,2.81-4.298c1.21-1.211,2.656-2.162,4.338-2.852
		c1.679-0.688,3.539-1.033,5.578-1.033c3.967,0,7.19,1.294,9.669,3.885c1.21,1.268,2.16,2.769,2.851,4.504
		c0.688,1.734,1.033,3.623,1.033,5.661v3.305h-8.429v-2.811c0-1.651-0.469-3.084-1.405-4.297c-0.938-1.211-2.205-1.817-3.801-1.817
		c-2.095,0-3.486,0.647-4.174,1.942c-0.69,1.295-1.033,2.934-1.033,4.917v30.08c0,1.708,0.372,3.141,1.116,4.296
		c0.744,1.158,2.078,1.736,4.008,1.736c0.549,0,1.142-0.096,1.777-0.289c0.631-0.192,1.225-0.51,1.776-0.95
		c0.496-0.439,0.909-1.047,1.24-1.817c0.33-0.771,0.496-1.736,0.496-2.894v-2.892H123.754z"/> <path clip-path="url(#SVGID_2_)" d="M133.422,240.217c0-2.368,0.413-4.462,1.24-6.281c0.826-1.817,1.927-3.333,3.305-4.544
		c1.322-1.157,2.822-2.039,4.504-2.646c1.679-0.605,3.373-0.908,5.082-0.908c1.706,0,3.4,0.303,5.082,0.908
		c1.679,0.606,3.208,1.488,4.587,2.646c1.322,1.211,2.396,2.727,3.222,4.544c0.827,1.819,1.24,3.913,1.24,6.281v31.071
		c0,2.479-0.413,4.602-1.24,6.363c-0.826,1.763-1.9,3.223-3.222,4.38c-1.379,1.213-2.908,2.122-4.587,2.728
		c-1.682,0.604-3.376,0.908-5.082,0.908c-1.709,0-3.403-0.304-5.082-0.908c-1.682-0.605-3.182-1.515-4.504-2.728
		c-1.378-1.157-2.479-2.617-3.305-4.38c-0.827-1.762-1.24-3.884-1.24-6.363V240.217z M141.852,271.288
		c0,2.039,0.563,3.54,1.694,4.504c1.128,0.966,2.465,1.446,4.008,1.446c1.541,0,2.878-0.48,4.008-1.446
		c1.127-0.964,1.694-2.465,1.694-4.504v-31.071c0-2.038-0.567-3.539-1.694-4.504c-1.13-0.965-2.467-1.446-4.008-1.446
		c-1.543,0-2.88,0.481-4.008,1.446c-1.131,0.965-1.694,2.466-1.694,4.504V271.288z"/> <path clip-path="url(#SVGID_2_)" d="M172.427,285.172v-58.838h12.643c2.314,0,4.351,0.303,6.116,0.908
		c1.762,0.607,3.359,1.682,4.793,3.224c1.431,1.542,2.423,3.347,2.975,5.413c0.549,2.065,0.826,4.861,0.826,8.388
		c0,2.644-0.153,4.875-0.454,6.693c-0.304,1.817-0.95,3.526-1.942,5.122c-1.157,1.93-2.701,3.431-4.628,4.505
		c-1.93,1.074-4.463,1.611-7.603,1.611h-4.297v22.974H172.427z M180.856,234.267v19.999h4.049c1.706,0,3.029-0.249,3.967-0.744
		c0.936-0.496,1.624-1.184,2.066-2.066c0.44-0.826,0.702-1.845,0.785-3.058c0.083-1.212,0.124-2.562,0.124-4.049
		c0-1.377-0.029-2.687-0.083-3.925c-0.055-1.24-0.304-2.327-0.743-3.265c-0.443-0.936-1.104-1.652-1.984-2.148
		c-0.882-0.496-2.148-0.744-3.801-0.744H180.856z"/> <polygon clip-path="url(#SVGID_2_)" points="213.912,285.172 213.912,260.298 202.343,226.334 211.267,226.334 218.043,249.72 
		218.208,249.72 224.985,226.334 233.91,226.334 222.341,260.298 222.341,285.172 	"/> <polygon clip-path="url(#SVGID_2_)" points="239.777,285.172 239.777,226.334 264.899,226.334 264.899,234.267 248.206,234.267 
		248.206,251.538 262.75,251.538 262.75,259.471 248.206,259.471 248.206,276.743 264.899,276.743 264.899,285.172 	"/> <path clip-path="url(#SVGID_2_)" d="M273.659,285.172v-58.838h12.478c4.848,0,8.524,1.321,11.033,3.967
		c2.505,2.644,3.76,6.391,3.76,11.237v27.52c0,5.51-1.337,9.572-4.009,12.188c-2.673,2.618-6.516,3.926-11.527,3.926H273.659z
		 M282.088,234.267v42.972h3.884c2.367,0,4.05-0.592,5.041-1.776c0.992-1.184,1.488-3.043,1.488-5.578v-28.346
		c0-2.313-0.47-4.104-1.405-5.37c-0.938-1.267-2.645-1.901-5.124-1.901H282.088z"/> <rect x="312.416" y="226.333" clip-path="url(#SVGID_2_)" width="8.429" height="58.838"/> <polygon clip-path="url(#SVGID_2_)" points="337.868,285.172 337.868,234.267 328.117,234.267 328.117,226.334 356.049,226.334 
		356.049,234.267 346.298,234.267 346.298,285.172 	"/> <rect x="363.321" y="226.333" clip-path="url(#SVGID_2_)" width="8.429" height="58.838"/> <polygon clip-path="url(#SVGID_2_)" points="382.906,285.172 382.906,226.334 391.005,226.334 403.731,261.785 403.896,261.785 
		403.896,226.334 412.325,226.334 412.325,285.172 404.393,285.172 391.501,249.803 391.335,249.803 391.335,285.172 	"/> <path clip-path="url(#SVGID_2_)" d="M422.738,240.217c0-2.369,0.413-4.462,1.239-6.281c0.826-1.817,1.928-3.333,3.306-4.545
		c1.322-1.156,2.821-2.038,4.504-2.644c1.68-0.607,3.373-0.909,5.082-0.909c1.706,0,3.4,0.302,5.082,0.909
		c1.68,0.605,3.208,1.487,4.586,2.644c1.322,1.212,2.396,2.728,3.224,4.545c0.826,1.819,1.239,3.912,1.239,6.281v2.975h-8.429
		v-2.975c0-2.038-0.566-3.539-1.694-4.504c-1.13-0.964-2.467-1.446-4.008-1.446c-1.544,0-2.881,0.482-4.008,1.446
		c-1.131,0.965-1.694,2.466-1.694,4.504v31.072c0,2.039,0.563,3.54,1.694,4.504c1.127,0.965,2.464,1.445,4.008,1.445
		c1.541,0,2.878-0.48,4.008-1.445c1.128-0.964,1.694-2.465,1.694-4.504v-11.073h-6.694v-7.438H451v18.512
		c0,2.479-0.413,4.601-1.239,6.362c-0.827,1.764-1.901,3.224-3.224,4.38c-1.378,1.213-2.906,2.122-4.586,2.728
		c-1.682,0.604-3.376,0.909-5.082,0.909c-1.709,0-3.402-0.305-5.082-0.909c-1.683-0.605-3.182-1.515-4.504-2.728
		c-1.378-1.156-2.479-2.616-3.306-4.38c-0.826-1.762-1.239-3.884-1.239-6.362V240.217z"/> </g> <g>  <clipPath id="SVGID_4_"> <use xlink:href="#SVGID_3_" overflow="visible"/> </clipPath> <linearGradient id="SVGID_5_" gradientUnits="userSpaceOnUse" x1="0" y1="394.3398" x2="1" y2="394.3398" gradientTransform="matrix(136.7966 -97.5309 -97.5309 -136.7966 38616.0391 54131.1562)"> <stop offset="0" style="stop-color:#B58626"/> <stop offset="0.0302" style="stop-color:#BB8A26"/> <stop offset="0.1912" style="stop-color:#D49E24"/> <stop offset="0.36" style="stop-color:#E5AB20"/> <stop offset="0.5484" style="stop-color:#ECB11F"/> <stop offset="0.9758" style="stop-color:#B58626"/> <stop offset="1" style="stop-color:#B58626"/> </linearGradient> <polygon clip-path="url(#SVGID_4_)" fill="url(#SVGID_5_)" points="113.971,120.831 245.301,27.197 336.048,154.479 
		204.718,248.112 	"/> </g> <g>  <clipPath id="SVGID_7_"> <use xlink:href="#SVGID_6_" overflow="visible"/> </clipPath> <path clip-path="url(#SVGID_7_)" d="M192.394,5.006L170.333,68.8h47.545L192.394,5.006z M184.741,37.082l16.799-0.42l11.541,28.888
		h-38.184L184.741,37.082z M296.346,84.336l-0.336-0.406c-0.325-0.395-8.137-9.671-23.688-9.671c-15.614,0-22.485,9.351-22.77,9.749
		l-0.274,0.384v38.527c0,9.111-7.41,16.523-16.523,16.523c-9.109,0-16.52-7.412-16.52-16.523V93.425
		c0-0.441,0.017-0.879,0.051-1.313l-2.931-0.226c-0.039,0.509-0.061,1.022-0.061,1.539v29.494c0,10.731,8.731,19.462,19.461,19.462
		c10.731,0,19.464-8.731,19.464-19.462v-10.162h18.839v12.816c0,21.283-17.314,38.598-38.597,38.598
		c-21.284,0-38.599-17.315-38.599-38.598V94.309c0-0.571,0.015-1.139,0.039-1.705l-3.028-0.126
		c-0.024,0.609-0.039,1.219-0.039,1.831v31.264c0,22.953,18.674,41.627,41.627,41.627c22.952,0,41.626-18.674,41.626-41.627v-12.816
		h19.319l0.001,17.15c0,33.636-27.365,61.001-61.001,61.001c-33.636,0-61.002-27.365-61.002-61.001V92.54h-2.941v37.367
		c0,35.257,28.685,63.94,63.943,63.94c35.257,0,63.941-28.683,63.941-63.94L296.346,84.336z M252.219,85.37
		c1.35-1.63,7.55-8.173,20.104-8.173c12.408,0,19.505,6.589,21.083,8.235v14.602h-41.187V85.37z M293.406,109.821h-41.188v-6.851
		h41.188V109.821z"/> <path clip-path="url(#SVGID_7_)" d="M189.609,324.589c-0.542-0.478-1.367-0.423-1.845,0.117l-19.488,22.133l-3.838-20.783
		c-0.097-0.527-0.508-0.942-1.033-1.045c-0.532-0.108-1.064,0.124-1.352,0.574l-14.685,22.809l-0.93-26.112
		c-0.027-0.72-0.576-1.278-1.354-1.26c-0.722,0.024-1.286,0.631-1.262,1.352l1.082,30.279c0.021,0.572,0.411,1.064,0.96,1.215
		c0.117,0.031,0.233,0.047,0.348,0.047c0.437,0,0.855-0.22,1.098-0.6l15.157-23.54l3.726,20.186c0.09,0.492,0.454,0.89,0.938,1.023
		c0.477,0.132,0.997-0.021,1.33-0.397l21.267-24.15C190.204,325.894,190.151,325.066,189.609,324.589 M309.2,343.284
		c-1.327,0.784-2.617,1.637-3.908,2.489l-1.096,0.716c-0.117-1.157,0.189-2.533,0.486-3.868c0.111-0.502,0.219-0.991,0.304-1.456
		c0.396-2.188,0.807-4.45,1.103-6.722l0.107-0.74c0.382-2.611,0.958-6.557-1.171-8.474c-0.987-0.887-1.991-0.997-2.633-0.942
		c-2.287,0.207-4.251,2.742-6.329,5.426c-0.392,0.509-0.787,1.02-1.187,1.514c-1.615,2.008-4.474,5.534-6.706,8.286
		c0.815-4.562,1.921-10.833,2.161-12.522c0.08-0.58-0.232-1.144-0.768-1.381c-0.539-0.233-1.167-0.087-1.536,0.366
		c-0.37,0.447-0.873,1.092-1.488,1.877c-3.76,4.805-13.749,17.565-19.748,17.75c-1.04,0.005-1.832-0.325-2.531-1.119
		c-1.376-1.553-0.875-6.215-0.006-8.845c0.679-2.053,3.464-6.2,4.48-7.625c0.413-0.58,0.286-1.384-0.283-1.808
		c-0.573-0.428-1.375-0.319-1.812,0.244c-0.095,0.12-9.475,12.136-13.53,15.778c-1.466,1.315-3.235,2.178-4.983,2.426
		c-1.128,0.16-2.153-0.094-2.793-0.699c-2.093-1.973-1.865-7.625-1.745-10.66l0.018-0.391c0.104-2.755,1.377-6.514,2.763-9.861
		h24.797c0.723,0,1.308-0.586,1.308-1.308s-0.585-1.308-1.308-1.308H247.51c1.416-2.847,2.462-5.015,2.57-5.237
		c0.307-0.64,0.049-1.408-0.581-1.731c-0.632-0.327-1.406-0.087-1.745,0.537c-0.116,0.211-1.351,2.493-2.738,5.565
		c-0.14,0.277-0.289,0.577-0.436,0.866h-10.471c-0.722,0-1.308,0.586-1.308,1.308s0.586,1.308,1.308,1.308h9.15
		c-1.921,3.763-4.025,7.729-5.358,9.767l-0.26,0.396c-3.686,5.633-7.861,12.021-14.43,13.49c-0.683,0.156-1.687,0.26-2.57-0.104
		c-0.921-0.381-1.716-1.31-2.129-2.489c-1.164-3.315,0.333-6.691,1.78-9.955l0.561-1.273c0.856-1.942,1.74-3.953,2.771-5.786
		c0.333-0.594,0.087-1.241-0.477-1.621c-0.551-0.373-1.366-0.169-1.798,0.344l-0.005-0.003l-0.015,0.025v0.001
		c-0.437,0.772-4.333,7.61-6.669,10.168c-3.407,3.73-7.088,7.566-11.326,9.908c-0.197,0.107-0.326,0.169-0.297,0.199
		c-0.044-0.032-0.129-0.139-0.173-0.286c-0.609-2.063,0.514-5.627,0.883-6.799c0.651-2.062,2.306-5.93,2.324-5.969
		c0.16-0.372,0.138-0.796-0.059-1.15c-0.197-0.354-0.546-0.596-0.945-0.658c-0.6-0.091-2.365-0.438-3.31-0.938
		c-0.698-0.37-0.997-1.632-0.997-4.221c0-0.535-0.326-1.017-0.824-1.215c-0.501-0.197-1.065-0.072-1.434,0.317
		c-0.69,0.729-16.277,21.11-19.393,25.188c-0.44,0.574-0.331,1.395,0.243,1.832c0.238,0.183,0.517,0.27,0.795,0.27
		c0.391,0,0.779-0.177,1.037-0.514c5.658-7.401,13.573-17.729,17.238-22.459c0.296,1.324,0.897,2.469,2.112,3.111
		c0.746,0.396,1.704,0.688,2.513,0.885c-0.561,1.363-1.364,3.373-1.794,4.734c-0.744,2.359-1.645,5.789-0.894,8.33
		c0.367,1.226,1.363,2.085,2.482,2.139c0.689,0.04,1.409-0.316,1.754-0.508c4.278-2.363,7.914-6.006,11.266-9.638
		c-0.496,2.045-0.596,4.19,0.182,6.405c0.666,1.899,1.978,3.371,3.602,4.041c1.194,0.493,2.625,0.573,4.139,0.238
		c7.605-1.702,12.284-8.859,16.047-14.61l0.257-0.396c0.275-0.419,0.579-0.913,0.904-1.465v0.029l-0.017,0.386
		c-0.148,3.694-0.396,9.878,2.564,12.669c1.228,1.153,3.04,1.66,4.955,1.383c2.253-0.32,4.512-1.409,6.359-3.069
		c1.621-1.453,3.976-4.087,6.285-6.81c-0.521,2.82-0.707,6.739,1.162,8.854c1.225,1.384,2.694,2.064,4.571,1.997
		c5.869-0.178,13.295-8.185,20.039-16.616c-0.906,5.21-2.191,12.342-2.209,12.445c-0.106,0.586,0.199,1.171,0.741,1.42
		c0.54,0.247,1.182,0.102,1.561-0.363c0,0,6.987-8.603,9.909-12.233c0.408-0.507,0.814-1.032,1.218-1.552
		c1.49-1.924,3.345-4.319,4.494-4.423c0.103-0.011,0.307-0.03,0.649,0.281c1.088,0.98,0.578,4.474,0.333,6.152l-0.11,0.779
		c-0.289,2.208-0.692,4.438-1.084,6.594c-0.08,0.432-0.179,0.888-0.284,1.356c-0.389,1.753-0.831,3.738-0.387,5.581
		c0.251,1.036,0.91,1.728,1.76,1.847c0.739,0.11,1.296-0.261,1.568-0.438l1.662-1.091c1.254-0.827,2.509-1.657,3.799-2.419
		c0.62-0.367,0.826-1.169,0.46-1.79C310.627,343.124,309.825,342.912,309.2,343.284 M352.671,356.279
		c-0.457-0.836-1.991-2.21-4.492-1.427c-1.322,0.413-3.878,2.36-6.46,4.587c0.015-0.827,0.024-1.652,0.031-2.471
		c0.01-0.916,0.02-1.822,0.039-2.708l0.039-1.656c0.155-6.081,0.313-12.369-1.938-18.284c-0.433-1.135-1.025-2.408-2.153-3.251
		c-1.252-0.94-2.989-1.205-4.752-0.726c-4.328,1.174-7.928,5.188-11.103,8.729c-1.14,1.272-2.217,2.473-3.242,3.45
		c-2.185,2.076-3.48,1.809-3.685,1.635c-0.23-0.23-0.279-1.203,1.006-3.383c1.714-2.898,5.403-7.771,7.406-10.175
		c1.947-2.337,3.425-3.41,4.346-3.191c0.717,0.166,1.407-0.277,1.567-0.979c0.163-0.703-0.276-1.405-0.979-1.567
		c-2.632-0.608-4.982,1.712-6.941,4.062c-2.06,2.474-5.864,7.504-7.648,10.521c-0.659,1.115-2.661,4.506-0.605,6.56
		c0.958,0.954,3.716,1.857,7.338-1.589c1.101-1.049,2.212-2.288,3.386-3.599c2.934-3.272,6.259-6.979,9.841-7.951
		c0.968-0.26,1.903-0.151,2.501,0.297c0.589,0.44,0.96,1.265,1.273,2.088c2.068,5.433,1.918,11.459,1.77,17.286l-0.041,1.665
		c-0.02,0.896-0.029,1.812-0.039,2.74c-0.015,1.625-0.031,3.271-0.106,4.902c-1.668,1.539-3.146,3-4.052,3.983
		c-0.878,0.952-1.845,1.952-2.852,2.994c-4.338,4.491-9.253,9.583-11.375,14.916c-0.257,0.647-0.573,1.629-0.361,2.676
		c0.398,1.928,2.318,2.976,4.1,2.976c0.144,0,0.284-0.009,0.426-0.021c8.864-0.859,13.516-12.309,15.499-19.056
		c0.688-2.337,1.009-4.793,1.167-7.277c3.064-2.771,6.275-5.343,7.379-5.687c0.989-0.313,1.354,0.092,1.417,0.185
		c0.348,0.635,1.143,0.863,1.774,0.521C352.785,357.707,353.016,356.913,352.671,356.279 M337.905,369.574
		c-1.799,6.115-5.911,16.48-13.244,17.191c-0.776,0.083-1.602-0.354-1.711-0.875c-0.073-0.36,0.097-0.852,0.23-1.188
		c1.93-4.852,6.655-9.747,10.826-14.065c1.021-1.055,2-2.071,2.89-3.035c0.525-0.569,1.135-1.194,1.796-1.846
		C338.516,367.069,338.265,368.35,337.905,369.574 M225.696,320.857c0.572,0.302,1.7-0.104,2.071-0.743
		c0.328-0.566-0.211-1.82-0.929-2.165c-0.771-0.371-1.577-0.186-1.948,0.447C224.386,319.257,224.745,320.356,225.696,320.857"/> <path clip-path="url(#SVGID_7_)" d="M229.176,302.629c2.491-4.042,4.983-8.083,7.477-12.125c-0.778-0.102-1.556-0.204-2.333-0.305
		c1.332,3.813,3.041,7.427,5.173,10.86c0.865,1.393,3.074,0.112,2.204-1.288c-2.015-3.246-3.655-6.643-4.916-10.251
		c-0.358-1.028-1.733-1.276-2.333-0.306c-2.492,4.042-4.984,8.084-7.476,12.125C226.106,302.743,228.314,304.026,229.176,302.629"/> <path clip-path="url(#SVGID_7_)" d="M114.386,325.609c-0.812,0-1.47-0.658-1.47-1.472v-11.969c0-0.813,0.658-1.473,1.47-1.473
		s1.471,0.659,1.471,1.473v11.969C115.857,324.951,115.198,325.609,114.386,325.609"/> <path clip-path="url(#SVGID_7_)" d="M109.234,351.536c-0.479,0-0.921-0.029-1.315-0.095c-2.049-0.343-2.778-1.348-3.031-2.133
		c-0.488-1.525,0.347-3.261,2.713-5.625c1.475-1.475,4.955-4.359,8.081-6.885c-3.383,0.873-7.556,1.774-11.676,2.208
		c-2.202,0.233-4.832,0.258-5.588-1.626c-0.997-2.473,2.392-5.349,7.673-9.454l0.209-0.163c4.458-3.466,13.003-6.337,13.366-6.457
		c0.775-0.263,1.604,0.16,1.859,0.93c0.258,0.77-0.158,1.604-0.929,1.86c-0.085,0.027-8.431,2.835-12.487,5.991l-0.212,0.163
		c-1.601,1.244-5.605,4.355-6.526,5.873c0.391,0.054,1.094,0.085,2.328-0.044c8.814-0.927,18.244-4.202,18.339-4.235
		c0.68-0.236,1.429,0.052,1.777,0.684c0.345,0.632,0.182,1.421-0.385,1.863c-0.109,0.086-10.971,8.597-13.749,11.373
		c-1.59,1.591-1.903,2.378-1.964,2.622c0.076,0,0.287,0.086,0.688,0.152c1.864,0.308,6.46-0.692,8.93-1.399
		c0.765-0.227,1.592,0.229,1.818,1.013c0.224,0.78-0.229,1.595-1.011,1.817C117.515,350.149,112.549,351.535,109.234,351.536"/> <path clip-path="url(#SVGID_7_)" d="M111.037,369.416c-0.097,0-0.192-0.01-0.292-0.028c-0.794-0.159-1.312-0.935-1.154-1.731
		l0.717-3.591c0.16-0.8,0.936-1.31,1.733-1.154c0.795,0.159,1.312,0.934,1.154,1.73l-0.717,3.591
		C112.337,368.933,111.723,369.416,111.037,369.416"/> </g> </symbol>
<symbol id="aulogosmall" viewBox="113.971 5.006 222.077 196.344"> <g> <g> <g>  <clipPath id="SVGID_4_"> <use xlink:href="#SVGID_3_" overflow="visible"/> </clipPath> <linearGradient id="SVGID_5_" gradientUnits="userSpaceOnUse" x1="0" y1="394.3398" x2="1" y2="394.3398" gradientTransform="matrix(136.7966 -97.5309 -97.5309 -136.7966 38616.0391 54131.1562)"> <stop offset="0" style="stop-color:#B58626"/> <stop offset="0.0302" style="stop-color:#BB8A26"/> <stop offset="0.1912" style="stop-color:#D49E24"/> <stop offset="0.36" style="stop-color:#E5AB20"/> <stop offset="0.5484" style="stop-color:#ECB11F"/> <stop offset="0.9758" style="stop-color:#B58626"/> <stop offset="1" style="stop-color:#B58626"/> </linearGradient> <polygon clip-path="url(#SVGID_4_)" fill="url(#SVGID_5_)" points="113.971,120.831 245.301,27.197 336.048,154.479
				204.718,248.112 	"/> </g> </g> </g> <g> <g> <path d="M192.394,5.006L170.333,68.8h47.545L192.394,5.006z M184.742,37.082l16.799-0.42l11.541,28.888h-38.185L184.742,37.082z
			 M296.346,84.336l-0.337-0.406c-0.323-0.395-8.137-9.671-23.688-9.671c-15.613,0-22.484,9.351-22.77,9.749l-0.275,0.384v38.526
			c0,9.111-7.408,16.523-16.521,16.523c-9.109,0-16.521-7.412-16.521-16.523V93.425c0-0.441,0.017-0.879,0.052-1.313l-2.932-0.226
			c-0.039,0.509-0.061,1.022-0.061,1.539v29.494c0,10.731,8.73,19.463,19.461,19.463s19.464-8.731,19.464-19.463v-10.162h18.84
			v12.816c0,21.283-17.313,38.598-38.599,38.598c-21.283,0-38.599-17.314-38.599-38.598V94.309c0-0.571,0.015-1.139,0.039-1.705
			l-3.028-0.126c-0.023,0.609-0.039,1.219-0.039,1.831v31.264c0,22.953,18.674,41.627,41.627,41.627s41.627-18.674,41.627-41.627
			v-12.816h19.318l0.002,17.15c0,33.637-27.365,61.002-61.002,61.002c-33.636,0-61.002-27.365-61.002-61.002V92.54h-2.941v37.367
			c0,35.258,28.686,63.94,63.943,63.94s63.941-28.683,63.941-63.94L296.346,84.336z M252.218,85.37
			c1.351-1.63,7.552-8.173,20.105-8.173c12.406,0,19.504,6.589,21.082,8.235v14.602h-41.188V85.37L252.218,85.37z M293.406,109.821
			h-41.188v-6.852h41.188V109.821z"/> </g> </g> </symbol>
<symbol id="aulogosmall2" viewBox="113.971 -40.294 222.077 288.406"> <g> <g>  <clipPath id="SVGID_2_"> <use xlink:href="#SVGID_1_" overflow="visible"/> </clipPath> <linearGradient id="SVGID_3_" gradientUnits="userSpaceOnUse" x1="-77.312" y1="200.5947" x2="-76.312" y2="200.5947" gradientTransform="matrix(136.7966 -97.5309 97.5309 136.7966 -8832.3438 -34793.9883)"> <stop offset="0" style="stop-color:#B58626"/> <stop offset="0.0302" style="stop-color:#BB8A26"/> <stop offset="0.1912" style="stop-color:#D49E24"/> <stop offset="0.36" style="stop-color:#E5AB20"/> <stop offset="0.5484" style="stop-color:#ECB11F"/> <stop offset="0.9758" style="stop-color:#B58626"/> <stop offset="1" style="stop-color:#B58626"/> </linearGradient> <polygon clip-path="url(#SVGID_2_)" fill="url(#SVGID_3_)" points="113.971,120.831 245.301,27.197 336.048,154.479 
			204.718,248.112 		"/> </g> </g> <g> <g> <path d="M192.394,5.006L170.333,68.8h47.545L192.394,5.006z M184.741,37.082l16.799-0.42l11.541,28.888h-38.184L184.741,37.082z
			 M296.346,84.336l-0.336-0.406c-0.324-0.395-8.137-9.671-23.688-9.671c-15.614,0-22.485,9.351-22.77,9.749l-0.275,0.384v38.527
			c0,9.111-7.409,16.523-16.522,16.523c-9.109,0-16.52-7.412-16.52-16.523V93.425c0-0.441,0.017-0.879,0.051-1.313l-2.931-0.226
			c-0.039,0.509-0.061,1.022-0.061,1.539v29.494c0,10.731,8.731,19.462,19.461,19.462c10.731,0,19.464-8.731,19.464-19.462v-10.162
			h18.84v12.816c0,21.283-17.314,38.598-38.598,38.598c-21.284,0-38.599-17.315-38.599-38.598V94.309
			c0-0.571,0.015-1.139,0.039-1.705l-3.028-0.126c-0.024,0.609-0.039,1.219-0.039,1.831v31.264
			c0,22.953,18.674,41.627,41.627,41.627c22.952,0,41.626-18.674,41.626-41.627v-12.816h19.319l0.001,17.15
			c0,33.636-27.365,61.001-61.001,61.001c-33.636,0-61.002-27.365-61.002-61.001V92.54h-2.941v37.367
			c0,35.257,28.685,63.94,63.943,63.94c35.257,0,63.941-28.683,63.941-63.94L296.346,84.336z M252.219,85.37
			c1.35-1.63,7.551-8.173,20.104-8.173c12.407,0,19.505,6.589,21.083,8.235v14.602h-41.188V85.37L252.219,85.37z M293.406,109.821
			h-41.188v-6.851h41.188V109.821z"/> </g> </g> </symbol>
<symbol id="close" viewBox="0 0 611.979 611.979"> <g> <path d="M356.781,305.982L601.453,61.311c14.033-14.033,14.033-36.771,0-50.774c-14.004-14.033-36.741-14.033-50.774,0
		L306.007,255.208L61.277,10.536c-14.004-14.033-36.771-14.033-50.774,0c-14.004,14.004-14.004,36.742,0,50.774l244.701,244.672
		L10.503,550.684c-14.004,14.004-14.004,36.771,0,50.774c7.016,7.017,16.216,10.51,25.387,10.51c9.2,0,18.371-3.493,25.387-10.51
		l244.701-244.701l244.671,244.701c7.017,7.017,16.217,10.51,25.388,10.51c9.199,0,18.399-3.493,25.387-10.51
		c14.033-14.033,14.033-36.771,0-50.774L356.781,305.982z"/> </g>                </symbol>
<symbol id="facebook" viewBox="0 0 430.113 430.114"> <g> <path id="Facebook" d="M158.081,83.3c0,10.839,0,59.218,0,59.218h-43.385v72.412h43.385v215.183h89.122V214.936h59.805
		c0,0,5.601-34.721,8.316-72.685c-7.784,0-67.784,0-67.784,0s0-42.127,0-49.511c0-7.4,9.717-17.354,19.321-17.354
		c9.586,0,29.818,0,48.557,0c0-9.859,0-43.924,0-75.385c-25.016,0-53.476,0-66.021,0C155.878-0.004,158.081,72.48,158.081,83.3z"/> </g>                </symbol>
<symbol id="hamburger2" viewBox="0 0 60.123 60.123"> <g> <path d="M57.124,51.893H16.92c-1.657,0-3-1.343-3-3s1.343-3,3-3h40.203c1.657,0,3,1.343,3,3S58.781,51.893,57.124,51.893z"/> <path d="M57.124,33.062H16.92c-1.657,0-3-1.343-3-3s1.343-3,3-3h40.203c1.657,0,3,1.343,3,3
		C60.124,31.719,58.781,33.062,57.124,33.062z"/> <path d="M57.124,14.231H16.92c-1.657,0-3-1.343-3-3s1.343-3,3-3h40.203c1.657,0,3,1.343,3,3S58.781,14.231,57.124,14.231z"/> <circle cx="4.029" cy="11.463" r="4.029"/> <circle cx="4.029" cy="30.062" r="4.029"/> <circle cx="4.029" cy="48.661" r="4.029"/> </g>                </symbol>
<symbol id="instagram" viewBox="0 0 97.395 97.395"> <g> <path d="M12.501,0h72.393c6.875,0,12.5,5.09,12.5,12.5v72.395c0,7.41-5.625,12.5-12.5,12.5H12.501C5.624,97.395,0,92.305,0,84.895
		V12.5C0,5.09,5.624,0,12.501,0L12.501,0z M70.948,10.821c-2.412,0-4.383,1.972-4.383,4.385v10.495c0,2.412,1.971,4.385,4.383,4.385
		h11.008c2.412,0,4.385-1.973,4.385-4.385V15.206c0-2.413-1.973-4.385-4.385-4.385H70.948L70.948,10.821z M86.387,41.188h-8.572
		c0.811,2.648,1.25,5.453,1.25,8.355c0,16.2-13.556,29.332-30.275,29.332c-16.718,0-30.272-13.132-30.272-29.332
		c0-2.904,0.438-5.708,1.25-8.355h-8.945v41.141c0,2.129,1.742,3.872,3.872,3.872h67.822c2.13,0,3.872-1.742,3.872-3.872V41.188
		H86.387z M48.789,29.533c-10.802,0-19.56,8.485-19.56,18.953c0,10.468,8.758,18.953,19.56,18.953
		c10.803,0,19.562-8.485,19.562-18.953C68.351,38.018,59.593,29.533,48.789,29.533z"/> </g>                </symbol>
<symbol id="linkedin-logo" viewBox="0 0 430.117 430.117"> <g> <path id="LinkedIn" d="M430.117,261.543V420.56h-92.188V272.193c0-37.271-13.334-62.707-46.703-62.707
		c-25.473,0-40.632,17.142-47.301,33.724c-2.432,5.928-3.058,14.179-3.058,22.477V420.56h-92.219c0,0,1.242-251.285,0-277.32h92.21
		v39.309c-0.187,0.294-0.43,0.611-0.606,0.896h0.606v-0.896c12.251-18.869,34.13-45.824,83.102-45.824
		C384.633,136.724,430.117,176.361,430.117,261.543z M52.183,9.558C20.635,9.558,0,30.251,0,57.463
		c0,26.619,20.038,47.94,50.959,47.94h0.616c32.159,0,52.159-21.317,52.159-47.94C103.128,30.251,83.734,9.558,52.183,9.558z
		 M5.477,420.56h92.184v-277.32H5.477V420.56z"/> </g>                </symbol>
<symbol id="logo" viewBox="0 0 350.7 306.5"> <g> <polygon fill="#49A1D9" points="27.685,269.186 114.288,37.314 200.889,269.186 	"/> <polygon fill="#3872B7" points="52.832,269.186 126.861,70.978 200.89,269.186 	"/> <polygon fill="#304272" points="78.318,269.186 139.604,105.097 200.89,269.186 	"/> <polygon fill="#49A1D9" points="149.81,269.186 236.412,37.314 323.014,269.186 	"/> <polygon fill="#212133" points="103.011,269.186 151.951,138.155 200.889,269.186 	"/> <polygon fill="#3872B7" points="174.957,269.186 248.986,70.978 323.015,269.186 	"/> <polygon fill="#304272" points="200.443,269.186 261.729,105.097 323.015,269.186 	"/> <polygon fill="#212133" points="225.136,269.186 274.076,138.155 323.014,269.186 	"/> </g> </symbol>
<symbol id="logo2" viewBox="0 -3640.205 4515.85 3946.705"> <polygon fill="#E37B40" points="288.381,-120.574 1443.437,-3213.13 2598.468,-120.574 "/> <polygon fill="#F0CA4D" points="623.361,-120.574 1609.491,-2760.875 2595.626,-120.574 "/> <polygon fill="#46B29D" points="962.856,-120.574 1779.242,-2306.378 2595.626,-120.574 "/> <polygon fill="#E37B40" points="1917.381,-120.574 3072.437,-3213.13 4227.468,-120.574 "/> <polygon fill="#253942" points="1291.792,-120.574 1943.716,-1866.015 2595.615,-120.574 "/> <polygon fill="#F0CA4D" points="2252.361,-120.574 3238.491,-2760.875 4224.626,-120.574 "/> <polygon fill="#46B29D" points="2591.856,-120.574 3408.242,-2306.378 4224.626,-120.574 "/> <polygon fill="#253942" points="2920.792,-120.574 3572.716,-1866.015 4224.615,-120.574 "/> </symbol>
<symbol id="pencil" viewBox="10.047 -6.214 11.906 42.404"> <g> <g id="Pencil"> <g> <path d="M15.909,36.19c1.569,0.008,3.048-0.601,4.159-1.707c1.114-1.105,1.731-2.579,1.735-4.148l0.149-24.92
				c0.002-0.147-0.03-0.293-0.093-0.426L16.943-5.633c-0.158-0.344-0.5-0.569-0.879-0.58c-0.278-0.007-0.542,0.1-0.734,0.292
				c-0.07,0.069-0.129,0.147-0.177,0.238l-4.906,9.178c-0.077,0.143-0.118,0.304-0.119,0.468l-0.082,26.333
				c-0.006,1.571,0.602,3.05,1.709,4.163C12.863,35.57,14.337,36.188,15.909,36.19z M12.29,3.917l1.835-3.437
				c0.603,0.299,1.24,0.461,1.892,0.463c0.565,0,1.114-0.108,1.639-0.274l2.094,4.524l-1.631,1.622L16.71,5.396
				c-0.39-0.392-1.022-0.395-1.415-0.004l-1.252,1.245L12.29,3.917z M12.065,24.573l0.053-17.231l0.913,1.416
				c0.165,0.253,0.434,0.418,0.733,0.451c0.301,0.033,0.599-0.071,0.812-0.284l1.419-1.41l1.409,1.418
				c0.39,0.392,1.023,0.394,1.415,0.004l1.119-1.113l-0.1,16.771h-0.018c-0.002,1.035-0.409,2.011-1.143,2.739
				c-0.734,0.729-1.712,1.132-2.747,1.127c-1.035-0.005-2.01-0.409-2.741-1.144C12.462,26.585,12.062,25.61,12.065,24.573z
				 M12.049,30.301l0.003-1.319c1.071,0.95,2.431,1.478,3.875,1.482c1.443,0.006,2.806-0.515,3.886-1.462l-0.01,1.322l0.001,0.003
				c-0.001,1.034-0.409,2.007-1.144,2.737c-0.734,0.731-1.711,1.132-2.745,1.126c-1.038-0.002-2.011-0.407-2.741-1.142
				C12.443,32.313,12.042,31.339,12.049,30.301z M16.939,25.902l0.043-14.142c0.002-0.553-0.443-1.001-0.997-1.003
				c-0.275-0.002-0.527,0.11-0.708,0.291c-0.182,0.181-0.293,0.43-0.295,0.706l-0.044,14.142c-0.001,0.553,0.444,1.001,0.997,1.003
				C16.49,26.9,16.938,26.455,16.939,25.902z"/> </g> </g> </g> </symbol>
<symbol id="plus1" viewBox="0 0 357 357"> <g> <g id="add"> <path d="M357,204H204v153h-51V204H0v-51h153V0h51v153h153V204z"/> </g> </g>                </symbol>
<symbol id="scroll" viewBox="0 0 512.002 512.002"> <g> <g> <path d="M234.429,112.065H130.804c-4.142,0-7.5,3.358-7.5,7.5c0,4.142,3.358,7.5,7.5,7.5h103.624c4.142,0,7.5-3.358,7.5-7.5
			C241.929,115.423,238.571,112.065,234.429,112.065z"/> </g> </g> <g> <g> <path d="M375.281,364.364h-55.476c-4.142,0-7.5,3.358-7.5,7.5c0,4.142,3.358,7.5,7.5,7.5h55.476c4.142,0,7.5-3.358,7.5-7.5
			C382.781,367.722,379.423,364.364,375.281,364.364z"/> </g> </g> <g> <g> <path d="M476.245,136.326c3.624,2.004,8.188,0.691,10.193-2.933c14.702-26.581,23.534-53.597,25.54-78.128
			c0.369-4.544-3.546-8.457-8.089-8.086c-28.616,2.34-59.95,13.913-89.961,32.568c-3.246-13.176-7.346-23.47-12.447-31.253
			c-7.837-11.958-18.061-18.023-30.387-18.023H43.788c-15.5,0-27.203,4.981-34.78,14.807C-5.7,64.345,1.95,94.338,2.283,95.606
			c0.866,3.296,3.846,5.595,7.254,5.595h66.02c6.706,42.678,6.364,103.367,6.047,159.227c-0.161,28.362-0.328,57.689,0.353,84.417
			c0.105,4.14,3.54,7.403,7.688,7.307c4.141-0.105,7.412-3.547,7.307-7.688c-0.674-26.494-0.508-55.702-0.348-83.949
			c0.38-66.939,0.746-131.33-8.622-174.825c-0.892-4.139-1.907-8.261-3.094-12.326c-3.305-11.354-7.507-20.805-12.848-27.891
			h299.054c13.59,0,23.251,14.091,29.469,43.043c-8.094,5.693-15.988,11.883-23.643,18.491
			c-17.119,14.777-32.926,31.627-46.52,49.891H130.804c-4.142,0-7.5,3.358-7.5,7.5c0,4.142,3.358,7.5,7.5,7.5h189.147
			c-5.536,8.5-10.51,17.126-14.865,25.784H130.804c-4.142,0-7.5,3.358-7.5,7.5c0,4.142,3.358,7.5,7.5,7.5h167.362
			c-3.623,8.647-6.594,17.272-8.887,25.784H130.804c-4.142,0-7.5,3.358-7.5,7.5c0,4.142,3.358,7.5,7.5,7.5h155.121
			c-0.625,3.574-1.103,7.112-1.46,10.615l-23.164,23.164c-2.929,2.929-2.929,7.678,0,10.606c2.836,2.835,7.689,2.918,10.607,0
			l23.154-23.154c13.906-1.411,27.557-4.828,40.704-9.524c13.532-4.834,26.56-11.046,38.995-18.236
			c11.985-6.93,23.434-14.783,34.292-23.37c-0.005,12.275-0.075,24.709-0.145,36.855c-0.306,53.904-0.622,109.516,4.894,150.379
			c0,0-248.45,0-248.749,0c-4.753,0-8.359,4.542-7.302,9.168c0.017,0.074,0.025,0.149,0.044,0.223
			c0.002,0.009,0.014,0.056,0.031,0.124c0.416,1.733,5.488,24.014-3.762,36.745c-0.027,0.038-0.054,0.076-0.082,0.114
			c-5.326,7.232-14.743,9.402-23.272,9.354c-18.227-0.103-28.873-30.304-32.544-92.32c-0.245-4.134-3.792-7.285-7.93-7.043
			c-4.135,0.245-7.289,3.795-7.043,7.93c2.933,49.554,10.996,106.434,47.611,106.434h327.306c15.5,0,27.203-4.981,34.78-14.807
			c14.706-19.068,7.056-49.061,6.723-50.329c-0.866-3.296-3.846-5.595-7.254-5.595h-63.408c-5.665-39.92-5.35-95.978-5.042-150.293
			c0.093-16.359,0.187-33.231,0.121-49.581c4.17-3.744,8.269-7.622,12.279-11.632c12.512-12.512,23.876-25.94,33.773-39.912
			c2.394-3.38,1.595-8.061-1.785-10.456c-3.38-2.394-8.061-1.595-10.456,1.785c-9.41,13.283-20.223,26.061-32.139,37.976
			c-9.394,9.394-19.414,18.179-29.979,26.235c-25.809,19.67-53.433,33.798-79.686,40.703c-0.845,0.221-1.694,0.428-2.542,0.637
			L446.78,122.979c2.929-2.929,2.929-7.678,0-10.606c-2.929-2.929-7.678-2.929-10.606,0L302.89,245.656
			c0.191-0.775,0.374-1.548,0.578-2.325c7.655-29.298,22.357-56.044,40.745-79.88c0.007-0.009,0.013-0.017,0.02-0.026
			c0.057-0.075,0.116-0.149,0.173-0.223c17.148-22.423,37.502-42.413,60.249-59.131c29.873-21.906,61.914-36.383,91.291-40.864
			c-3.054,19.957-10.79,41.513-22.634,62.926C471.307,129.758,472.62,134.321,476.245,136.326z M72.724,86.198H15.738v0.001
			c-0.352-2.425-0.672-5.473-0.74-8.809c-0.138-6.824,0.775-16.352,5.911-22.984c4.598-5.938,11.954-8.863,22.48-8.935l4.91,0.54
			c0.071,0.017,0.141,0.035,0.211,0.053c9.918,2.584,17.662,14.494,23.093,35.477C72.003,83.087,72.372,84.641,72.724,86.198z
			 M486.142,425.801c1.138,7.949,1.966,22.564-5.128,31.762c-4.654,6.034-12.146,8.967-22.903,8.967H165.733
			c9.646-12.683,9.518-30.105,8.252-40.729H486.142z"/> </g> </g>                </symbol>
<symbol id="twitter" viewBox="0 0 612 612"> <g> <g> <path d="M612,116.258c-22.525,9.981-46.694,16.75-72.088,19.772c25.929-15.527,45.777-40.155,55.184-69.411
			c-24.322,14.379-51.169,24.82-79.775,30.48c-22.907-24.437-55.49-39.658-91.63-39.658c-69.334,0-125.551,56.217-125.551,125.513
			c0,9.828,1.109,19.427,3.251,28.606C197.065,206.32,104.556,156.337,42.641,80.386c-10.823,18.51-16.98,40.078-16.98,63.101
			c0,43.559,22.181,81.993,55.835,104.479c-20.575-0.688-39.926-6.348-56.867-15.756v1.568c0,60.806,43.291,111.554,100.693,123.104
			c-10.517,2.83-21.607,4.398-33.08,4.398c-8.107,0-15.947-0.803-23.634-2.333c15.985,49.907,62.336,86.199,117.253,87.194
			c-42.947,33.654-97.099,53.655-155.916,53.655c-10.134,0-20.116-0.612-29.944-1.721c55.567,35.681,121.536,56.485,192.438,56.485
			c230.948,0,357.188-191.291,357.188-357.188l-0.421-16.253C573.872,163.526,595.211,141.422,612,116.258z"/> </g> </g>                </symbol>
</svg>