<?xml version="1.0" encoding="utf-8"?>
<!-- Generator: Adobe Illustrator 23.0.4, SVG Export Plug-In . SVG Version: 6.00 Build 0)  -->
<svg version="1.1" id="Layer_1" xmlns="http://www.w3.org/2000/svg" xmlns:xlink="http://www.w3.org/1999/xlink" x="0px" y="0px"
	 viewBox="0 0 423.9 365.8" style="enable-background:new 0 0 423.9 365.8;" xml:space="preserve">
<style type="text/css">
	.st0{clip-path:url(#SVGID_2_);}
	.st1{clip-path:url(#SVGID_4_);}
	.st2{clip-path:url(#SVGID_6_);}
	.st3{clip-path:url(#SVGID_8_);}
	.st4{clip-path:url(#SVGID_10_);}
	.st5{clip-path:url(#SVGID_12_);}
	.st6{clip-path:url(#SVGID_14_);}
	.st7{clip-path:url(#SVGID_16_);}
	.st8{clip-path:url(#SVGID_18_);}
	.st9{clip-path:url(#SVGID_20_);}
	.st10{clip-path:url(#SVGID_22_);}
	.st11{clip-path:url(#SVGID_24_);}
	.st12{clip-path:url(#SVGID_26_);fill:url(#SVGID_27_);}
	.st13{clip-path:url(#SVGID_29_);}
	.st14{clip-path:url(#SVGID_31_);}
	.st15{clip-path:url(#SVGID_33_);}
	.st16{clip-path:url(#SVGID_35_);}
	.st17{clip-path:url(#SVGID_37_);}
	.st18{clip-path:url(#SVGID_39_);}
</style>
<g>
	<g>
		<g>
			<defs>
				<rect id="SVGID_1_" width="423.9" height="365.8"/>
			</defs>
			<clipPath id="SVGID_2_">
				<use xlink:href="#SVGID_1_"  style="overflow:visible;"/>
			</clipPath>
			<path class="st0" d="M65.7,225.7v38.9h-7.8v-3.8h-0.2c-0.8,1.2-1.8,2.2-3,3c-1.1,0.8-2.6,1.2-4.4,1.2c-1,0-1.9-0.2-2.9-0.5
				c-1-0.3-1.8-0.9-2.6-1.6c-0.8-0.8-1.4-1.7-1.8-3c-0.5-1.2-0.7-2.7-0.7-4.4v-29.8h7.8v26.9c0,1.4,0.3,2.6,1,3.4
				c0.7,0.8,1.6,1.2,2.8,1.2c1.5,0,2.5-0.5,3.1-1.4c0.6-0.9,0.8-2.2,0.8-4v-26.1L65.7,225.7L65.7,225.7z"/>
		</g>
		<g>
			<defs>
				<rect id="SVGID_3_" width="423.9" height="365.8"/>
			</defs>
			<clipPath id="SVGID_4_">
				<use xlink:href="#SVGID_3_"  style="overflow:visible;"/>
			</clipPath>
			<path class="st1" d="M114.8,249v3.4c0,1.7-0.3,3.3-1,4.8c-0.6,1.5-1.5,2.8-2.6,4c-1.1,1.2-2.4,2.1-3.9,2.8c-1.5,0.7-3.1,1-4.9,1
				c-1.5,0-3-0.2-4.5-0.6c-1.5-0.4-2.9-1.1-4.1-2.1c-1.2-1-2.2-2.3-3-3.9c-0.8-1.6-1.2-3.7-1.2-6.2v-30c0-1.8,0.3-3.5,0.9-5
				c0.6-1.5,1.5-2.9,2.6-4c1.1-1.1,2.5-2,4-2.6c1.6-0.6,3.3-1,5.2-1c3.7,0,6.7,1.2,9,3.6c1.1,1.2,2,2.6,2.6,4.2c0.6,1.6,1,3.4,1,5.3
				v3.1H107V223c0-1.5-0.4-2.9-1.3-4c-0.9-1.1-2-1.7-3.5-1.7c-1.9,0-3.2,0.6-3.9,1.8c-0.6,1.2-1,2.7-1,4.6v27.9c0,1.6,0.3,2.9,1,4
				c0.7,1.1,1.9,1.6,3.7,1.6c0.5,0,1.1-0.1,1.6-0.3c0.6-0.2,1.1-0.5,1.6-0.9c0.5-0.4,0.8-1,1.2-1.7c0.3-0.7,0.5-1.6,0.5-2.7V249
				L114.8,249L114.8,249z"/>
		</g>
		<g>
			<defs>
				<rect id="SVGID_5_" width="423.9" height="365.8"/>
			</defs>
			<clipPath id="SVGID_6_">
				<use xlink:href="#SVGID_5_"  style="overflow:visible;"/>
			</clipPath>
			<path class="st2" d="M123.8,222.8c0-2.2,0.4-4.1,1.2-5.8c0.8-1.7,1.8-3.1,3.1-4.2c1.2-1.1,2.6-1.9,4.2-2.5
				c1.6-0.6,3.1-0.8,4.7-0.8c1.6,0,3.2,0.3,4.7,0.8c1.6,0.6,3,1.4,4.3,2.5c1.2,1.1,2.2,2.5,3,4.2c0.8,1.7,1.2,3.6,1.2,5.8v28.8
				c0,2.3-0.4,4.3-1.2,5.9c-0.8,1.6-1.8,3-3,4.1c-1.3,1.1-2.7,2-4.3,2.5c-1.6,0.6-3.1,0.8-4.7,0.8c-1.6,0-3.2-0.3-4.7-0.8
				c-1.6-0.6-3-1.4-4.2-2.5c-1.3-1.1-2.3-2.4-3.1-4.1c-0.8-1.6-1.2-3.6-1.2-5.9V222.8z M131.6,251.6c0,1.9,0.5,3.3,1.6,4.2
				c1,0.9,2.3,1.3,3.7,1.3c1.4,0,2.7-0.4,3.7-1.3c1-0.9,1.6-2.3,1.6-4.2v-28.8c0-1.9-0.5-3.3-1.6-4.2c-1-0.9-2.3-1.3-3.7-1.3
				c-1.4,0-2.7,0.4-3.7,1.3c-1,0.9-1.6,2.3-1.6,4.2V251.6z"/>
		</g>
		<g>
			<defs>
				<rect id="SVGID_7_" width="423.9" height="365.8"/>
			</defs>
			<clipPath id="SVGID_8_">
				<use xlink:href="#SVGID_7_"  style="overflow:visible;"/>
			</clipPath>
			<path class="st3" d="M159.9,264.5v-54.6h11.7c2.1,0,4,0.3,5.7,0.8c1.6,0.6,3.1,1.6,4.4,3c1.3,1.4,2.2,3.1,2.8,5
				c0.5,1.9,0.8,4.5,0.8,7.8c0,2.5-0.1,4.5-0.4,6.2c-0.3,1.7-0.9,3.3-1.8,4.8c-1.1,1.8-2.5,3.2-4.3,4.2c-1.8,1-4.1,1.5-7.1,1.5h-4
				v21.3H159.9z M167.8,217.3v18.6h3.8c1.6,0,2.8-0.2,3.7-0.7c0.9-0.5,1.5-1.1,1.9-1.9c0.4-0.8,0.7-1.7,0.7-2.8
				c0.1-1.1,0.1-2.4,0.1-3.8c0-1.3,0-2.5-0.1-3.6c-0.1-1.2-0.3-2.2-0.7-3c-0.4-0.9-1-1.5-1.8-2c-0.8-0.5-2-0.7-3.5-0.7H167.8z"/>
		</g>
		<g>
			<defs>
				<rect id="SVGID_9_" width="423.9" height="365.8"/>
			</defs>
			<clipPath id="SVGID_10_">
				<use xlink:href="#SVGID_9_"  style="overflow:visible;"/>
			</clipPath>
			<polygon class="st4" points="198.4,264.5 198.4,241.4 187.7,209.9 196,209.9 202.2,231.6 202.4,231.6 208.7,209.9 217,209.9
				206.2,241.4 206.2,264.5 			"/>
		</g>
		<g>
			<defs>
				<rect id="SVGID_11_" width="423.9" height="365.8"/>
			</defs>
			<clipPath id="SVGID_12_">
				<use xlink:href="#SVGID_11_"  style="overflow:visible;"/>
			</clipPath>
			<polygon class="st5" points="222.4,264.5 222.4,209.9 245.7,209.9 245.7,217.3 230.2,217.3 230.2,233.3 243.7,233.3 243.7,240.7
				230.2,240.7 230.2,256.7 245.7,256.7 245.7,264.5 			"/>
		</g>
		<g>
			<defs>
				<rect id="SVGID_13_" width="423.9" height="365.8"/>
			</defs>
			<clipPath id="SVGID_14_">
				<use xlink:href="#SVGID_13_"  style="overflow:visible;"/>
			</clipPath>
			<path class="st6" d="M253.8,264.5v-54.6h11.6c4.5,0,7.9,1.2,10.2,3.7c2.3,2.5,3.5,5.9,3.5,10.4v25.5c0,5.1-1.2,8.9-3.7,11.3
				c-2.5,2.4-6,3.6-10.7,3.6L253.8,264.5L253.8,264.5z M261.7,217.3v39.9h3.6c2.2,0,3.8-0.5,4.7-1.6c0.9-1.1,1.4-2.8,1.4-5.2V224
				c0-2.1-0.4-3.8-1.3-5c-0.9-1.2-2.5-1.8-4.8-1.8L261.7,217.3L261.7,217.3z"/>
		</g>
		<g>
			<defs>
				<rect id="SVGID_15_" width="423.9" height="365.8"/>
			</defs>
			<clipPath id="SVGID_16_">
				<use xlink:href="#SVGID_15_"  style="overflow:visible;"/>
			</clipPath>
			<rect x="289.8" y="209.9" class="st7" width="7.8" height="54.6"/>
		</g>
		<g>
			<defs>
				<rect id="SVGID_17_" width="423.9" height="365.8"/>
			</defs>
			<clipPath id="SVGID_18_">
				<use xlink:href="#SVGID_17_"  style="overflow:visible;"/>
			</clipPath>
			<polygon class="st8" points="313.4,264.5 313.4,217.3 304.3,217.3 304.3,209.9 330.3,209.9 330.3,217.3 321.2,217.3 321.2,264.5
							"/>
		</g>
		<g>
			<defs>
				<rect id="SVGID_19_" width="423.9" height="365.8"/>
			</defs>
			<clipPath id="SVGID_20_">
				<use xlink:href="#SVGID_19_"  style="overflow:visible;"/>
			</clipPath>
			<rect x="337" y="209.9" class="st9" width="7.8" height="54.6"/>
		</g>
		<g>
			<defs>
				<rect id="SVGID_21_" width="423.9" height="365.8"/>
			</defs>
			<clipPath id="SVGID_22_">
				<use xlink:href="#SVGID_21_"  style="overflow:visible;"/>
			</clipPath>
			<polygon class="st10" points="355.2,264.5 355.2,209.9 362.7,209.9 374.5,242.8 374.6,242.8 374.6,209.9 382.5,209.9
				382.5,264.5 375.1,264.5 363.1,231.7 363,231.7 363,264.5 			"/>
		</g>
		<g>
			<defs>
				<rect id="SVGID_23_" width="423.9" height="365.8"/>
			</defs>
			<clipPath id="SVGID_24_">
				<use xlink:href="#SVGID_23_"  style="overflow:visible;"/>
			</clipPath>
			<path class="st11" d="M392.1,222.8c0-2.2,0.4-4.1,1.1-5.8c0.8-1.7,1.8-3.1,3.1-4.2c1.2-1.1,2.6-1.9,4.2-2.5
				c1.6-0.6,3.1-0.8,4.7-0.8c1.6,0,3.2,0.3,4.7,0.8c1.6,0.6,3,1.4,4.3,2.5c1.2,1.1,2.2,2.5,3,4.2c0.8,1.7,1.1,3.6,1.1,5.8v2.8h-7.8
				v-2.8c0-1.9-0.5-3.3-1.6-4.2c-1-0.9-2.3-1.3-3.7-1.3c-1.4,0-2.7,0.4-3.7,1.3c-1,0.9-1.6,2.3-1.6,4.2v28.8c0,1.9,0.5,3.3,1.6,4.2
				c1,0.9,2.3,1.3,3.7,1.3c1.4,0,2.7-0.4,3.7-1.3c1-0.9,1.6-2.3,1.6-4.2v-10.3h-6.2v-6.9h14v17.2c0,2.3-0.4,4.3-1.1,5.9
				c-0.8,1.6-1.8,3-3,4.1c-1.3,1.1-2.7,2-4.3,2.5c-1.6,0.6-3.1,0.8-4.7,0.8c-1.6,0-3.2-0.3-4.7-0.8c-1.6-0.6-3-1.4-4.2-2.5
				c-1.3-1.1-2.3-2.4-3.1-4.1c-0.8-1.6-1.1-3.6-1.1-5.9L392.1,222.8L392.1,222.8z"/>
		</g>
		<path d="M6.6,264.5l12.2-54.6h6.5l12.2,54.6h-7.8l-2.3-11.7H16.7l-2.3,11.7H6.6z M25.9,245.4L22,225.7h-0.2l-3.8,19.8H25.9z"/>
	</g>
	<g>
		<g>
			<defs>
				<path id="SVGID_25_" d="M151,79.8v37.1c0,32.3,26,58.7,57.7,58.7h0c31.8,0,57.7-26.4,57.7-58.7V108h-40v6.3
					c0,8.8-7.1,16-15.7,16h-1.7c-8.6,0-15.7-7.2-15.7-16V79.8H151z"/>
			</defs>
			<clipPath id="SVGID_26_">
				<use xlink:href="#SVGID_25_"  style="overflow:visible;"/>
			</clipPath>

				<linearGradient id="SVGID_27_" gradientUnits="userSpaceOnUse" x1="689.0072" y1="245.1869" x2="689.9348" y2="245.1869" gradientTransform="matrix(136.7966 -97.5309 97.5309 136.7966 -118022.5859 33832.1836)">
				<stop  offset="0" style="stop-color:#B58626"/>
				<stop  offset="3.020000e-02" style="stop-color:#BB8A26"/>
				<stop  offset="0.1912" style="stop-color:#D49E24"/>
				<stop  offset="0.36" style="stop-color:#E5AB20"/>
				<stop  offset="0.5484" style="stop-color:#ECB11F"/>
				<stop  offset="0.9758" style="stop-color:#B58626"/>
				<stop  offset="1" style="stop-color:#B58626"/>
			</linearGradient>
			<polygon class="st12" points="105.7,112.1 227.5,25.2 311.7,143.3 189.9,230.1 			"/>
		</g>
	</g>
	<g>
		<g>
			<defs>
				<rect id="SVGID_28_" width="423.9" height="365.8"/>
			</defs>
			<clipPath id="SVGID_29_">
				<use xlink:href="#SVGID_28_"  style="overflow:visible;"/>
			</clipPath>
			<path class="st13" d="M178.5,4.6L158,63.8h44.1L178.5,4.6z M171.4,34.4l15.6-0.4l10.7,26.8h-35.4L171.4,34.4z M274.9,78.2
				l-0.3-0.4c-0.3-0.4-7.5-9-22-9c-14.5,0-20.9,8.7-21.1,9l-0.3,0.4V114c0,8.5-6.9,15.3-15.3,15.3c-8.4,0-15.3-6.9-15.3-15.3V86.7
				c0-0.4,0-0.8,0-1.2l-2.7-0.2c0,0.5-0.1,0.9-0.1,1.4V114c0,10,8.1,18.1,18.1,18.1c10,0,18.1-8.1,18.1-18.1v-9.4h17.5v11.9
				c0,19.7-16.1,35.8-35.8,35.8c-19.7,0-35.8-16.1-35.8-35.8v-29c0-0.5,0-1.1,0-1.6l-2.8-0.1c0,0.6,0,1.1,0,1.7v29
				c0,21.3,17.3,38.6,38.6,38.6c21.3,0,38.6-17.3,38.6-38.6v-11.9h17.9l0,15.9c0,31.2-25.4,56.6-56.6,56.6S159,151.7,159,120.5V85.8
				h-2.7v34.7c0,32.7,26.6,59.3,59.3,59.3c32.7,0,59.3-26.6,59.3-59.3L274.9,78.2z M233.9,79.2c1.3-1.5,7-7.6,18.6-7.6
				c11.5,0,18.1,6.1,19.6,7.6v13.5h-38.2L233.9,79.2L233.9,79.2z M272.2,101.9h-38.2v-6.4h38.2V101.9z"/>
		</g>
		<g>
			<defs>
				<rect id="SVGID_30_" width="423.9" height="365.8"/>
			</defs>
			<clipPath id="SVGID_31_">
				<use xlink:href="#SVGID_30_"  style="overflow:visible;"/>
			</clipPath>
			<path class="st14" d="M175.9,301.1c-0.5-0.4-1.3-0.4-1.7,0.1l-18.1,20.5l-3.6-19.3c-0.1-0.5-0.5-0.9-1-1c-0.5-0.1-1,0.1-1.3,0.5
				l-13.6,21.2l-0.9-24.2c0-0.7-0.5-1.2-1.3-1.2c-0.7,0-1.2,0.6-1.2,1.3l1,28.1c0,0.5,0.4,1,0.9,1.1c0.1,0,0.2,0,0.3,0
				c0.4,0,0.8-0.2,1-0.6l14.1-21.8l3.5,18.7c0.1,0.5,0.4,0.8,0.9,0.9c0.4,0.1,0.9,0,1.2-0.4l19.7-22.4
				C176.4,302.3,176.4,301.5,175.9,301.1 M286.8,318.4c-1.2,0.7-2.4,1.5-3.6,2.3l-1,0.7c-0.1-1.1,0.2-2.3,0.5-3.6
				c0.1-0.5,0.2-0.9,0.3-1.4c0.4-2,0.7-4.1,1-6.2l0.1-0.7c0.4-2.4,0.9-6.1-1.1-7.9c-0.9-0.8-1.8-0.9-2.4-0.9c-2.1,0.2-3.9,2.5-5.9,5
				c-0.4,0.5-0.7,0.9-1.1,1.4c-1.5,1.9-4.1,5.1-6.2,7.7c0.8-4.2,1.8-10,2-11.6c0.1-0.5-0.2-1.1-0.7-1.3c-0.5-0.2-1.1-0.1-1.4,0.3
				c-0.3,0.4-0.8,1-1.4,1.7c-3.5,4.5-12.8,16.3-18.3,16.5c-1,0-1.7-0.3-2.3-1c-1.3-1.4-0.8-5.8,0-8.2c0.6-1.9,3.2-5.8,4.2-7.1
				c0.4-0.5,0.3-1.3-0.3-1.7c-0.5-0.4-1.3-0.3-1.7,0.2c-0.1,0.1-8.8,11.3-12.5,14.6c-1.4,1.2-3,2-4.6,2.3c-1,0.1-2-0.1-2.6-0.6
				c-1.9-1.8-1.7-7.1-1.6-9.9l0-0.4c0.1-2.6,1.3-6,2.6-9.1h23c0.7,0,1.2-0.5,1.2-1.2s-0.5-1.2-1.2-1.2h-21.9
				c1.3-2.6,2.3-4.7,2.4-4.9c0.3-0.6,0-1.3-0.5-1.6c-0.6-0.3-1.3-0.1-1.6,0.5c-0.1,0.2-1.3,2.3-2.5,5.2c-0.1,0.3-0.3,0.5-0.4,0.8
				h-9.7c-0.7,0-1.2,0.5-1.2,1.2s0.5,1.2,1.2,1.2h8.5c-1.8,3.5-3.7,7.2-5,9.1l-0.2,0.4c-3.4,5.2-7.3,11.2-13.4,12.5
				c-0.6,0.1-1.6,0.2-2.4-0.1c-0.9-0.4-1.6-1.2-2-2.3c-1.1-3.1,0.3-6.2,1.7-9.2l0.5-1.2c0.8-1.8,1.6-3.7,2.6-5.4
				c0.3-0.6,0.1-1.2-0.4-1.5c-0.5-0.3-1.3-0.2-1.7,0.3l0,0l0,0v0c-0.4,0.7-4,7.1-6.2,9.4c-3.2,3.5-6.6,7-10.5,9.2
				c-0.2,0.1-0.3,0.2-0.3,0.2c0,0-0.1-0.1-0.2-0.3c-0.6-1.9,0.5-5.2,0.8-6.3c0.6-1.9,2.1-5.5,2.2-5.5c0.1-0.3,0.1-0.7-0.1-1.1
				c-0.2-0.3-0.5-0.6-0.9-0.6c-0.6-0.1-2.2-0.4-3.1-0.9c-0.6-0.3-0.9-1.5-0.9-3.9c0-0.5-0.3-0.9-0.8-1.1c-0.5-0.2-1-0.1-1.3,0.3
				c-0.6,0.7-15.1,19.6-18,23.4c-0.4,0.5-0.3,1.3,0.2,1.7c0.2,0.2,0.5,0.3,0.7,0.3c0.4,0,0.7-0.2,1-0.5c5.2-6.9,12.6-16.4,16-20.8
				c0.3,1.2,0.8,2.3,2,2.9c0.7,0.4,1.6,0.6,2.3,0.8c-0.5,1.3-1.3,3.1-1.7,4.4c-0.7,2.2-1.5,5.4-0.8,7.7c0.3,1.1,1.3,1.9,2.3,2
				c0.6,0,1.3-0.3,1.6-0.5c4-2.2,7.3-5.6,10.4-8.9c-0.5,1.9-0.6,3.9,0.2,5.9c0.6,1.8,1.8,3.1,3.3,3.7c1.1,0.5,2.4,0.5,3.8,0.2
				c7.1-1.6,11.4-8.2,14.9-13.6l0.2-0.4c0.3-0.4,0.5-0.8,0.8-1.4v0l0,0.4c-0.1,3.4-0.4,9.2,2.4,11.8c1.1,1.1,2.8,1.5,4.6,1.3
				c2.1-0.3,4.2-1.3,5.9-2.8c1.5-1.3,3.7-3.8,5.8-6.3c-0.5,2.6-0.7,6.3,1.1,8.2c1.1,1.3,2.5,1.9,4.2,1.9c5.4-0.2,12.3-7.6,18.6-15.4
				c-0.8,4.8-2,11.4-2,11.5c-0.1,0.5,0.2,1.1,0.7,1.3c0.5,0.2,1.1,0.1,1.4-0.3c0,0,6.5-8,9.2-11.3c0.4-0.5,0.8-1,1.1-1.4
				c1.4-1.8,3.1-4,4.2-4.1c0.1,0,0.3,0,0.6,0.3c1,0.9,0.5,4.1,0.3,5.7l-0.1,0.7c-0.3,2-0.6,4.1-1,6.1c-0.1,0.4-0.2,0.8-0.3,1.3
				c-0.4,1.6-0.8,3.5-0.4,5.2c0.2,1,0.8,1.6,1.6,1.7c0.7,0.1,1.2-0.2,1.5-0.4l1.5-1c1.2-0.8,2.3-1.5,3.5-2.2
				c0.6-0.3,0.8-1.1,0.4-1.7C288.1,318.3,287.4,318.1,286.8,318.4 M327.1,330.5c-0.4-0.8-1.8-2-4.2-1.3c-1.2,0.4-3.6,2.2-6,4.3
				c0-0.8,0-1.5,0-2.3c0-0.8,0-1.7,0-2.5l0-1.5c0.1-5.6,0.3-11.5-1.8-17c-0.4-1.1-1-2.2-2-3c-1.2-0.9-2.8-1.1-4.4-0.7
				c-4,1.1-7.4,4.8-10.3,8.1c-1.1,1.2-2.1,2.3-3,3.2c-2,1.9-3.2,1.7-3.4,1.5c-0.2-0.2-0.3-1.1,0.9-3.1c1.6-2.7,5-7.2,6.9-9.4
				c1.8-2.2,3.2-3.2,4-3c0.7,0.2,1.3-0.3,1.5-0.9c0.2-0.7-0.3-1.3-0.9-1.5c-2.4-0.6-4.6,1.6-6.4,3.8c-1.9,2.3-5.4,7-7.1,9.8
				c-0.6,1-2.5,4.2-0.6,6.1c0.9,0.9,3.4,1.7,6.8-1.5c1-1,2.1-2.1,3.1-3.3c2.7-3,5.8-6.5,9.1-7.4c0.9-0.2,1.8-0.1,2.3,0.3
				c0.5,0.4,0.9,1.2,1.2,1.9c1.9,5,1.8,10.6,1.6,16l0,1.5c0,0.8,0,1.7,0,2.5c0,1.5,0,3-0.1,4.5c-1.5,1.4-2.9,2.8-3.8,3.7
				c-0.8,0.9-1.7,1.8-2.6,2.8c-4,4.2-8.6,8.9-10.6,13.8c-0.2,0.6-0.5,1.5-0.3,2.5c0.4,1.8,2.2,2.8,3.8,2.8c0.1,0,0.3,0,0.4,0
				c8.2-0.8,12.5-11.4,14.4-17.7c0.6-2.2,0.9-4.4,1.1-6.7c2.8-2.6,5.8-5,6.8-5.3c0.9-0.3,1.3,0.1,1.3,0.2c0.3,0.6,1.1,0.8,1.6,0.5
				C327.2,331.8,327.4,331.1,327.1,330.5 M313.4,342.8c-1.7,5.7-5.5,15.3-12.3,15.9c-0.7,0.1-1.5-0.3-1.6-0.8
				c-0.1-0.3,0.1-0.8,0.2-1.1c1.8-4.5,6.2-9,10-13c0.9-1,1.9-1.9,2.7-2.8c0.5-0.5,1.1-1.1,1.7-1.7
				C314,340.5,313.8,341.7,313.4,342.8 M209.3,297.6c0.5,0.3,1.6-0.1,1.9-0.7c0.3-0.5-0.2-1.7-0.9-2c-0.7-0.3-1.5-0.2-1.8,0.4
				C208.1,296.1,208.5,297.1,209.3,297.6"/>
		</g>
		<g>
			<defs>
				<rect id="SVGID_32_" width="423.9" height="365.8"/>
			</defs>
			<clipPath id="SVGID_33_">
				<use xlink:href="#SVGID_32_"  style="overflow:visible;"/>
			</clipPath>
			<path class="st15" d="M212.6,280.7c2.3-3.7,4.6-7.5,6.9-11.2c-0.7-0.1-1.4-0.2-2.2-0.3c1.2,3.5,2.8,6.9,4.8,10.1
				c0.8,1.3,2.9,0.1,2-1.2c-1.9-3-3.4-6.2-4.6-9.5c-0.3-1-1.6-1.2-2.2-0.3c-2.3,3.7-4.6,7.5-6.9,11.2
				C209.7,280.8,211.8,282,212.6,280.7"/>
		</g>
		<g>
			<defs>
				<rect id="SVGID_34_" width="423.9" height="365.8"/>
			</defs>
			<clipPath id="SVGID_35_">
				<use xlink:href="#SVGID_34_"  style="overflow:visible;"/>
			</clipPath>
			<path class="st16" d="M106.1,302c-0.8,0-1.4-0.6-1.4-1.4v-11.1c0-0.8,0.6-1.4,1.4-1.4c0.8,0,1.4,0.6,1.4,1.4v11.1
				C107.5,301.4,106.9,302,106.1,302"/>
		</g>
		<g>
			<defs>
				<rect id="SVGID_36_" width="423.9" height="365.8"/>
			</defs>
			<clipPath id="SVGID_37_">
				<use xlink:href="#SVGID_36_"  style="overflow:visible;"/>
			</clipPath>
			<path class="st17" d="M101.3,326.1c-0.4,0-0.9,0-1.2-0.1c-1.9-0.3-2.6-1.3-2.8-2c-0.5-1.4,0.3-3,2.5-5.2c1.4-1.4,4.6-4,7.5-6.4
				c-3.1,0.8-7,1.6-10.8,2c-2,0.2-4.5,0.2-5.2-1.5c-0.9-2.3,2.2-5,7.1-8.8l0.2-0.2c4.1-3.2,12.1-5.9,12.4-6c0.7-0.2,1.5,0.1,1.7,0.9
				c0.2,0.7-0.1,1.5-0.9,1.7c-0.1,0-7.8,2.6-11.6,5.6l-0.2,0.2c-1.5,1.2-5.2,4-6.1,5.4c0.4,0.1,1,0.1,2.2,0c8.2-0.9,16.9-3.9,17-3.9
				c0.6-0.2,1.3,0,1.6,0.6c0.3,0.6,0.2,1.3-0.4,1.7c-0.1,0.1-10.2,8-12.8,10.5c-1.5,1.5-1.8,2.2-1.8,2.4c0.1,0,0.3,0.1,0.6,0.1
				c1.7,0.3,6-0.6,8.3-1.3c0.7-0.2,1.5,0.2,1.7,0.9c0.2,0.7-0.2,1.5-0.9,1.7C109,324.8,104.4,326.1,101.3,326.1"/>
		</g>
		<g>
			<defs>
				<rect id="SVGID_38_" width="423.9" height="365.8"/>
			</defs>
			<clipPath id="SVGID_39_">
				<use xlink:href="#SVGID_38_"  style="overflow:visible;"/>
			</clipPath>
			<path class="st18" d="M103,342.7c-0.1,0-0.2,0-0.3,0c-0.7-0.1-1.2-0.9-1.1-1.6l0.7-3.3c0.1-0.7,0.9-1.2,1.6-1.1
				c0.7,0.1,1.2,0.9,1.1,1.6l-0.7,3.3C104.2,342.2,103.6,342.7,103,342.7"/>
		</g>
	</g>
</g>
</svg>
