<?xml version="1.0" encoding="utf-8"?>
<!-- Generator: Adobe Illustrator 16.0.0, SVG Export Plug-In . SVG Version: 6.00 Build 0)  -->
<!DOCTYPE svg PUBLIC "-//W3C//DTD SVG 1.1//EN" "http://www.w3.org/Graphics/SVG/1.1/DTD/svg11.dtd">
<svg version="1.1" id="Layer_1" xmlns="http://www.w3.org/2000/svg" xmlns:xlink="http://www.w3.org/1999/xlink" x="0px" y="0px"
	 width="457px" height="394.412px" viewBox="0 0 457 394.412" enable-background="new 0 0 457 394.412" xml:space="preserve">
<path d="M7.068,285.172l13.14-58.838h7.024l13.14,58.838h-8.43l-2.479-12.644H17.977l-2.479,12.644H7.068z M27.894,264.595
	l-4.132-21.32h-0.165l-4.132,21.32H27.894z"/>
<g>
	<defs>
		<rect id="SVGID_1_" width="457" height="394.412"/>
	</defs>
	<clipPath id="SVGID_2_">
		<use xlink:href="#SVGID_1_"  overflow="visible"/>
	</clipPath>
	<path clip-path="url(#SVGID_2_)" d="M70.865,243.274v41.896h-8.429v-4.049h-0.165c-0.883,1.322-1.942,2.411-3.182,3.265
		c-1.239,0.853-2.824,1.28-4.751,1.28c-1.048,0-2.096-0.18-3.14-0.537c-1.048-0.356-1.984-0.949-2.811-1.776
		c-0.826-0.826-1.487-1.886-1.982-3.182c-0.497-1.294-0.745-2.878-0.745-4.752v-32.146h8.43v29.006c0,1.543,0.357,2.755,1.074,3.636
		c0.715,0.882,1.735,1.322,3.057,1.322c1.598,0,2.698-0.496,3.306-1.487c0.605-0.991,0.909-2.424,0.909-4.297v-28.18H70.865z"/>
	<path clip-path="url(#SVGID_2_)" d="M123.754,268.396v3.636c0,1.818-0.345,3.54-1.033,5.165c-0.691,1.626-1.641,3.072-2.851,4.338
		c-1.213,1.269-2.633,2.273-4.256,3.017c-1.626,0.743-3.376,1.115-5.248,1.115c-1.599,0-3.222-0.221-4.875-0.661
		c-1.653-0.439-3.14-1.212-4.463-2.313c-1.322-1.101-2.411-2.521-3.264-4.255c-0.855-1.736-1.281-3.953-1.281-6.653v-32.394
		c0-1.929,0.331-3.72,0.992-5.371c0.661-1.653,1.597-3.086,2.81-4.298c1.21-1.211,2.656-2.162,4.338-2.852
		c1.679-0.688,3.539-1.033,5.578-1.033c3.967,0,7.19,1.294,9.669,3.885c1.21,1.268,2.16,2.769,2.851,4.504
		c0.688,1.734,1.033,3.623,1.033,5.661v3.305h-8.429v-2.811c0-1.651-0.469-3.084-1.405-4.297c-0.938-1.211-2.205-1.817-3.801-1.817
		c-2.095,0-3.486,0.647-4.174,1.942c-0.69,1.295-1.033,2.934-1.033,4.917v30.08c0,1.708,0.372,3.141,1.116,4.296
		c0.744,1.158,2.078,1.736,4.008,1.736c0.549,0,1.142-0.096,1.777-0.289c0.631-0.192,1.225-0.51,1.776-0.95
		c0.496-0.439,0.909-1.047,1.24-1.817c0.33-0.771,0.496-1.736,0.496-2.894v-2.892H123.754z"/>
	<path clip-path="url(#SVGID_2_)" d="M133.422,240.217c0-2.368,0.413-4.462,1.24-6.281c0.826-1.817,1.927-3.333,3.305-4.544
		c1.322-1.157,2.822-2.039,4.504-2.646c1.679-0.605,3.373-0.908,5.082-0.908c1.706,0,3.4,0.303,5.082,0.908
		c1.679,0.606,3.208,1.488,4.587,2.646c1.322,1.211,2.396,2.727,3.222,4.544c0.827,1.819,1.24,3.913,1.24,6.281v31.071
		c0,2.479-0.413,4.602-1.24,6.363c-0.826,1.763-1.9,3.223-3.222,4.38c-1.379,1.213-2.908,2.122-4.587,2.728
		c-1.682,0.604-3.376,0.908-5.082,0.908c-1.709,0-3.403-0.304-5.082-0.908c-1.682-0.605-3.182-1.515-4.504-2.728
		c-1.378-1.157-2.479-2.617-3.305-4.38c-0.827-1.762-1.24-3.884-1.24-6.363V240.217z M141.852,271.288
		c0,2.039,0.563,3.54,1.694,4.504c1.128,0.966,2.465,1.446,4.008,1.446c1.541,0,2.878-0.48,4.008-1.446
		c1.127-0.964,1.694-2.465,1.694-4.504v-31.071c0-2.038-0.567-3.539-1.694-4.504c-1.13-0.965-2.467-1.446-4.008-1.446
		c-1.543,0-2.88,0.481-4.008,1.446c-1.131,0.965-1.694,2.466-1.694,4.504V271.288z"/>
	<path clip-path="url(#SVGID_2_)" d="M172.427,285.172v-58.838h12.643c2.314,0,4.351,0.303,6.116,0.908
		c1.762,0.607,3.359,1.682,4.793,3.224c1.431,1.542,2.423,3.347,2.975,5.413c0.549,2.065,0.826,4.861,0.826,8.388
		c0,2.644-0.153,4.875-0.454,6.693c-0.304,1.817-0.95,3.526-1.942,5.122c-1.157,1.93-2.701,3.431-4.628,4.505
		c-1.93,1.074-4.463,1.611-7.603,1.611h-4.297v22.974H172.427z M180.856,234.267v19.999h4.049c1.706,0,3.029-0.249,3.967-0.744
		c0.936-0.496,1.624-1.184,2.066-2.066c0.44-0.826,0.702-1.845,0.785-3.058c0.083-1.212,0.124-2.562,0.124-4.049
		c0-1.377-0.029-2.687-0.083-3.925c-0.055-1.24-0.304-2.327-0.743-3.265c-0.443-0.936-1.104-1.652-1.984-2.148
		c-0.882-0.496-2.148-0.744-3.801-0.744H180.856z"/>
	<polygon clip-path="url(#SVGID_2_)" points="213.912,285.172 213.912,260.298 202.343,226.334 211.267,226.334 218.043,249.72 
		218.208,249.72 224.985,226.334 233.91,226.334 222.341,260.298 222.341,285.172 	"/>
	<polygon clip-path="url(#SVGID_2_)" points="239.777,285.172 239.777,226.334 264.899,226.334 264.899,234.267 248.206,234.267 
		248.206,251.538 262.75,251.538 262.75,259.471 248.206,259.471 248.206,276.743 264.899,276.743 264.899,285.172 	"/>
	<path clip-path="url(#SVGID_2_)" d="M273.659,285.172v-58.838h12.478c4.848,0,8.524,1.321,11.033,3.967
		c2.505,2.644,3.76,6.391,3.76,11.237v27.52c0,5.51-1.337,9.572-4.009,12.188c-2.673,2.618-6.516,3.926-11.527,3.926H273.659z
		 M282.088,234.267v42.972h3.884c2.367,0,4.05-0.592,5.041-1.776c0.992-1.184,1.488-3.043,1.488-5.578v-28.346
		c0-2.313-0.47-4.104-1.405-5.37c-0.938-1.267-2.645-1.901-5.124-1.901H282.088z"/>
	<rect x="312.416" y="226.333" clip-path="url(#SVGID_2_)" width="8.429" height="58.838"/>
	<polygon clip-path="url(#SVGID_2_)" points="337.868,285.172 337.868,234.267 328.117,234.267 328.117,226.334 356.049,226.334 
		356.049,234.267 346.298,234.267 346.298,285.172 	"/>
	<rect x="363.321" y="226.333" clip-path="url(#SVGID_2_)" width="8.429" height="58.838"/>
	<polygon clip-path="url(#SVGID_2_)" points="382.906,285.172 382.906,226.334 391.005,226.334 403.731,261.785 403.896,261.785 
		403.896,226.334 412.325,226.334 412.325,285.172 404.393,285.172 391.501,249.803 391.335,249.803 391.335,285.172 	"/>
	<path clip-path="url(#SVGID_2_)" d="M422.738,240.217c0-2.369,0.413-4.462,1.239-6.281c0.826-1.817,1.928-3.333,3.306-4.545
		c1.322-1.156,2.821-2.038,4.504-2.644c1.68-0.607,3.373-0.909,5.082-0.909c1.706,0,3.4,0.302,5.082,0.909
		c1.68,0.605,3.208,1.487,4.586,2.644c1.322,1.212,2.396,2.728,3.224,4.545c0.826,1.819,1.239,3.912,1.239,6.281v2.975h-8.429
		v-2.975c0-2.038-0.566-3.539-1.694-4.504c-1.13-0.964-2.467-1.446-4.008-1.446c-1.544,0-2.881,0.482-4.008,1.446
		c-1.131,0.965-1.694,2.466-1.694,4.504v31.072c0,2.039,0.563,3.54,1.694,4.504c1.127,0.965,2.464,1.445,4.008,1.445
		c1.541,0,2.878-0.48,4.008-1.445c1.128-0.964,1.694-2.465,1.694-4.504v-11.073h-6.694v-7.438H451v18.512
		c0,2.479-0.413,4.601-1.239,6.362c-0.827,1.764-1.901,3.224-3.224,4.38c-1.378,1.213-2.906,2.122-4.586,2.728
		c-1.682,0.604-3.376,0.909-5.082,0.909c-1.709,0-3.402-0.305-5.082-0.909c-1.683-0.605-3.182-1.515-4.504-2.728
		c-1.378-1.156-2.479-2.616-3.306-4.38c-0.826-1.762-1.239-3.884-1.239-6.362V240.217z"/>
</g>
<g>
	<defs>
		<path id="SVGID_3_" d="M162.762,86.044v39.961c0,34.793,28.012,63.26,62.247,63.26h0.001c34.236,0,62.247-28.467,62.247-63.26
			v-9.608h-43.081v6.805c0,9.469-7.624,17.217-16.94,17.217h-1.832c-9.319,0-16.942-7.748-16.942-17.217V86.044H162.762z"/>
	</defs>
	<clipPath id="SVGID_4_">
		<use xlink:href="#SVGID_3_"  overflow="visible"/>
	</clipPath>
	
		<linearGradient id="SVGID_5_" gradientUnits="userSpaceOnUse" x1="0" y1="394.3398" x2="1" y2="394.3398" gradientTransform="matrix(136.7966 -97.5309 -97.5309 -136.7966 38616.0391 54131.1562)">
		<stop  offset="0" style="stop-color:#B58626"/>
		<stop  offset="0.0302" style="stop-color:#BB8A26"/>
		<stop  offset="0.1912" style="stop-color:#D49E24"/>
		<stop  offset="0.36" style="stop-color:#E5AB20"/>
		<stop  offset="0.5484" style="stop-color:#ECB11F"/>
		<stop  offset="0.9758" style="stop-color:#B58626"/>
		<stop  offset="1" style="stop-color:#B58626"/>
	</linearGradient>
	<polygon clip-path="url(#SVGID_4_)" fill="url(#SVGID_5_)" points="113.971,120.831 245.301,27.197 336.048,154.479 
		204.718,248.112 	"/>
</g>
<g>
	<defs>
		<rect id="SVGID_6_" width="457" height="394.412"/>
	</defs>
	<clipPath id="SVGID_7_">
		<use xlink:href="#SVGID_6_"  overflow="visible"/>
	</clipPath>
	<path clip-path="url(#SVGID_7_)" d="M192.394,5.006L170.333,68.8h47.545L192.394,5.006z M184.741,37.082l16.799-0.42l11.541,28.888
		h-38.184L184.741,37.082z M296.346,84.336l-0.336-0.406c-0.325-0.395-8.137-9.671-23.688-9.671c-15.614,0-22.485,9.351-22.77,9.749
		l-0.274,0.384v38.527c0,9.111-7.41,16.523-16.523,16.523c-9.109,0-16.52-7.412-16.52-16.523V93.425
		c0-0.441,0.017-0.879,0.051-1.313l-2.931-0.226c-0.039,0.509-0.061,1.022-0.061,1.539v29.494c0,10.731,8.731,19.462,19.461,19.462
		c10.731,0,19.464-8.731,19.464-19.462v-10.162h18.839v12.816c0,21.283-17.314,38.598-38.597,38.598
		c-21.284,0-38.599-17.315-38.599-38.598V94.309c0-0.571,0.015-1.139,0.039-1.705l-3.028-0.126
		c-0.024,0.609-0.039,1.219-0.039,1.831v31.264c0,22.953,18.674,41.627,41.627,41.627c22.952,0,41.626-18.674,41.626-41.627v-12.816
		h19.319l0.001,17.15c0,33.636-27.365,61.001-61.001,61.001c-33.636,0-61.002-27.365-61.002-61.001V92.54h-2.941v37.367
		c0,35.257,28.685,63.94,63.943,63.94c35.257,0,63.941-28.683,63.941-63.94L296.346,84.336z M252.219,85.37
		c1.35-1.63,7.55-8.173,20.104-8.173c12.408,0,19.505,6.589,21.083,8.235v14.602h-41.187V85.37z M293.406,109.821h-41.188v-6.851
		h41.188V109.821z"/>
	<path clip-path="url(#SVGID_7_)" d="M189.609,324.589c-0.542-0.478-1.367-0.423-1.845,0.117l-19.488,22.133l-3.838-20.783
		c-0.097-0.527-0.508-0.942-1.033-1.045c-0.532-0.108-1.064,0.124-1.352,0.574l-14.685,22.809l-0.93-26.112
		c-0.027-0.72-0.576-1.278-1.354-1.26c-0.722,0.024-1.286,0.631-1.262,1.352l1.082,30.279c0.021,0.572,0.411,1.064,0.96,1.215
		c0.117,0.031,0.233,0.047,0.348,0.047c0.437,0,0.855-0.22,1.098-0.6l15.157-23.54l3.726,20.186c0.09,0.492,0.454,0.89,0.938,1.023
		c0.477,0.132,0.997-0.021,1.33-0.397l21.267-24.15C190.204,325.894,190.151,325.066,189.609,324.589 M309.2,343.284
		c-1.327,0.784-2.617,1.637-3.908,2.489l-1.096,0.716c-0.117-1.157,0.189-2.533,0.486-3.868c0.111-0.502,0.219-0.991,0.304-1.456
		c0.396-2.188,0.807-4.45,1.103-6.722l0.107-0.74c0.382-2.611,0.958-6.557-1.171-8.474c-0.987-0.887-1.991-0.997-2.633-0.942
		c-2.287,0.207-4.251,2.742-6.329,5.426c-0.392,0.509-0.787,1.02-1.187,1.514c-1.615,2.008-4.474,5.534-6.706,8.286
		c0.815-4.562,1.921-10.833,2.161-12.522c0.08-0.58-0.232-1.144-0.768-1.381c-0.539-0.233-1.167-0.087-1.536,0.366
		c-0.37,0.447-0.873,1.092-1.488,1.877c-3.76,4.805-13.749,17.565-19.748,17.75c-1.04,0.005-1.832-0.325-2.531-1.119
		c-1.376-1.553-0.875-6.215-0.006-8.845c0.679-2.053,3.464-6.2,4.48-7.625c0.413-0.58,0.286-1.384-0.283-1.808
		c-0.573-0.428-1.375-0.319-1.812,0.244c-0.095,0.12-9.475,12.136-13.53,15.778c-1.466,1.315-3.235,2.178-4.983,2.426
		c-1.128,0.16-2.153-0.094-2.793-0.699c-2.093-1.973-1.865-7.625-1.745-10.66l0.018-0.391c0.104-2.755,1.377-6.514,2.763-9.861
		h24.797c0.723,0,1.308-0.586,1.308-1.308s-0.585-1.308-1.308-1.308H247.51c1.416-2.847,2.462-5.015,2.57-5.237
		c0.307-0.64,0.049-1.408-0.581-1.731c-0.632-0.327-1.406-0.087-1.745,0.537c-0.116,0.211-1.351,2.493-2.738,5.565
		c-0.14,0.277-0.289,0.577-0.436,0.866h-10.471c-0.722,0-1.308,0.586-1.308,1.308s0.586,1.308,1.308,1.308h9.15
		c-1.921,3.763-4.025,7.729-5.358,9.767l-0.26,0.396c-3.686,5.633-7.861,12.021-14.43,13.49c-0.683,0.156-1.687,0.26-2.57-0.104
		c-0.921-0.381-1.716-1.31-2.129-2.489c-1.164-3.315,0.333-6.691,1.78-9.955l0.561-1.273c0.856-1.942,1.74-3.953,2.771-5.786
		c0.333-0.594,0.087-1.241-0.477-1.621c-0.551-0.373-1.366-0.169-1.798,0.344l-0.005-0.003l-0.015,0.025v0.001
		c-0.437,0.772-4.333,7.61-6.669,10.168c-3.407,3.73-7.088,7.566-11.326,9.908c-0.197,0.107-0.326,0.169-0.297,0.199
		c-0.044-0.032-0.129-0.139-0.173-0.286c-0.609-2.063,0.514-5.627,0.883-6.799c0.651-2.062,2.306-5.93,2.324-5.969
		c0.16-0.372,0.138-0.796-0.059-1.15c-0.197-0.354-0.546-0.596-0.945-0.658c-0.6-0.091-2.365-0.438-3.31-0.938
		c-0.698-0.37-0.997-1.632-0.997-4.221c0-0.535-0.326-1.017-0.824-1.215c-0.501-0.197-1.065-0.072-1.434,0.317
		c-0.69,0.729-16.277,21.11-19.393,25.188c-0.44,0.574-0.331,1.395,0.243,1.832c0.238,0.183,0.517,0.27,0.795,0.27
		c0.391,0,0.779-0.177,1.037-0.514c5.658-7.401,13.573-17.729,17.238-22.459c0.296,1.324,0.897,2.469,2.112,3.111
		c0.746,0.396,1.704,0.688,2.513,0.885c-0.561,1.363-1.364,3.373-1.794,4.734c-0.744,2.359-1.645,5.789-0.894,8.33
		c0.367,1.226,1.363,2.085,2.482,2.139c0.689,0.04,1.409-0.316,1.754-0.508c4.278-2.363,7.914-6.006,11.266-9.638
		c-0.496,2.045-0.596,4.19,0.182,6.405c0.666,1.899,1.978,3.371,3.602,4.041c1.194,0.493,2.625,0.573,4.139,0.238
		c7.605-1.702,12.284-8.859,16.047-14.61l0.257-0.396c0.275-0.419,0.579-0.913,0.904-1.465v0.029l-0.017,0.386
		c-0.148,3.694-0.396,9.878,2.564,12.669c1.228,1.153,3.04,1.66,4.955,1.383c2.253-0.32,4.512-1.409,6.359-3.069
		c1.621-1.453,3.976-4.087,6.285-6.81c-0.521,2.82-0.707,6.739,1.162,8.854c1.225,1.384,2.694,2.064,4.571,1.997
		c5.869-0.178,13.295-8.185,20.039-16.616c-0.906,5.21-2.191,12.342-2.209,12.445c-0.106,0.586,0.199,1.171,0.741,1.42
		c0.54,0.247,1.182,0.102,1.561-0.363c0,0,6.987-8.603,9.909-12.233c0.408-0.507,0.814-1.032,1.218-1.552
		c1.49-1.924,3.345-4.319,4.494-4.423c0.103-0.011,0.307-0.03,0.649,0.281c1.088,0.98,0.578,4.474,0.333,6.152l-0.11,0.779
		c-0.289,2.208-0.692,4.438-1.084,6.594c-0.08,0.432-0.179,0.888-0.284,1.356c-0.389,1.753-0.831,3.738-0.387,5.581
		c0.251,1.036,0.91,1.728,1.76,1.847c0.739,0.11,1.296-0.261,1.568-0.438l1.662-1.091c1.254-0.827,2.509-1.657,3.799-2.419
		c0.62-0.367,0.826-1.169,0.46-1.79C310.627,343.124,309.825,342.912,309.2,343.284 M352.671,356.279
		c-0.457-0.836-1.991-2.21-4.492-1.427c-1.322,0.413-3.878,2.36-6.46,4.587c0.015-0.827,0.024-1.652,0.031-2.471
		c0.01-0.916,0.02-1.822,0.039-2.708l0.039-1.656c0.155-6.081,0.313-12.369-1.938-18.284c-0.433-1.135-1.025-2.408-2.153-3.251
		c-1.252-0.94-2.989-1.205-4.752-0.726c-4.328,1.174-7.928,5.188-11.103,8.729c-1.14,1.272-2.217,2.473-3.242,3.45
		c-2.185,2.076-3.48,1.809-3.685,1.635c-0.23-0.23-0.279-1.203,1.006-3.383c1.714-2.898,5.403-7.771,7.406-10.175
		c1.947-2.337,3.425-3.41,4.346-3.191c0.717,0.166,1.407-0.277,1.567-0.979c0.163-0.703-0.276-1.405-0.979-1.567
		c-2.632-0.608-4.982,1.712-6.941,4.062c-2.06,2.474-5.864,7.504-7.648,10.521c-0.659,1.115-2.661,4.506-0.605,6.56
		c0.958,0.954,3.716,1.857,7.338-1.589c1.101-1.049,2.212-2.288,3.386-3.599c2.934-3.272,6.259-6.979,9.841-7.951
		c0.968-0.26,1.903-0.151,2.501,0.297c0.589,0.44,0.96,1.265,1.273,2.088c2.068,5.433,1.918,11.459,1.77,17.286l-0.041,1.665
		c-0.02,0.896-0.029,1.812-0.039,2.74c-0.015,1.625-0.031,3.271-0.106,4.902c-1.668,1.539-3.146,3-4.052,3.983
		c-0.878,0.952-1.845,1.952-2.852,2.994c-4.338,4.491-9.253,9.583-11.375,14.916c-0.257,0.647-0.573,1.629-0.361,2.676
		c0.398,1.928,2.318,2.976,4.1,2.976c0.144,0,0.284-0.009,0.426-0.021c8.864-0.859,13.516-12.309,15.499-19.056
		c0.688-2.337,1.009-4.793,1.167-7.277c3.064-2.771,6.275-5.343,7.379-5.687c0.989-0.313,1.354,0.092,1.417,0.185
		c0.348,0.635,1.143,0.863,1.774,0.521C352.785,357.707,353.016,356.913,352.671,356.279 M337.905,369.574
		c-1.799,6.115-5.911,16.48-13.244,17.191c-0.776,0.083-1.602-0.354-1.711-0.875c-0.073-0.36,0.097-0.852,0.23-1.188
		c1.93-4.852,6.655-9.747,10.826-14.065c1.021-1.055,2-2.071,2.89-3.035c0.525-0.569,1.135-1.194,1.796-1.846
		C338.516,367.069,338.265,368.35,337.905,369.574 M225.696,320.857c0.572,0.302,1.7-0.104,2.071-0.743
		c0.328-0.566-0.211-1.82-0.929-2.165c-0.771-0.371-1.577-0.186-1.948,0.447C224.386,319.257,224.745,320.356,225.696,320.857"/>
	<path clip-path="url(#SVGID_7_)" d="M229.176,302.629c2.491-4.042,4.983-8.083,7.477-12.125c-0.778-0.102-1.556-0.204-2.333-0.305
		c1.332,3.813,3.041,7.427,5.173,10.86c0.865,1.393,3.074,0.112,2.204-1.288c-2.015-3.246-3.655-6.643-4.916-10.251
		c-0.358-1.028-1.733-1.276-2.333-0.306c-2.492,4.042-4.984,8.084-7.476,12.125C226.106,302.743,228.314,304.026,229.176,302.629"/>
	<path clip-path="url(#SVGID_7_)" d="M114.386,325.609c-0.812,0-1.47-0.658-1.47-1.472v-11.969c0-0.813,0.658-1.473,1.47-1.473
		s1.471,0.659,1.471,1.473v11.969C115.857,324.951,115.198,325.609,114.386,325.609"/>
	<path clip-path="url(#SVGID_7_)" d="M109.234,351.536c-0.479,0-0.921-0.029-1.315-0.095c-2.049-0.343-2.778-1.348-3.031-2.133
		c-0.488-1.525,0.347-3.261,2.713-5.625c1.475-1.475,4.955-4.359,8.081-6.885c-3.383,0.873-7.556,1.774-11.676,2.208
		c-2.202,0.233-4.832,0.258-5.588-1.626c-0.997-2.473,2.392-5.349,7.673-9.454l0.209-0.163c4.458-3.466,13.003-6.337,13.366-6.457
		c0.775-0.263,1.604,0.16,1.859,0.93c0.258,0.77-0.158,1.604-0.929,1.86c-0.085,0.027-8.431,2.835-12.487,5.991l-0.212,0.163
		c-1.601,1.244-5.605,4.355-6.526,5.873c0.391,0.054,1.094,0.085,2.328-0.044c8.814-0.927,18.244-4.202,18.339-4.235
		c0.68-0.236,1.429,0.052,1.777,0.684c0.345,0.632,0.182,1.421-0.385,1.863c-0.109,0.086-10.971,8.597-13.749,11.373
		c-1.59,1.591-1.903,2.378-1.964,2.622c0.076,0,0.287,0.086,0.688,0.152c1.864,0.308,6.46-0.692,8.93-1.399
		c0.765-0.227,1.592,0.229,1.818,1.013c0.224,0.78-0.229,1.595-1.011,1.817C117.515,350.149,112.549,351.535,109.234,351.536"/>
	<path clip-path="url(#SVGID_7_)" d="M111.037,369.416c-0.097,0-0.192-0.01-0.292-0.028c-0.794-0.159-1.312-0.935-1.154-1.731
		l0.717-3.591c0.16-0.8,0.936-1.31,1.733-1.154c0.795,0.159,1.312,0.934,1.154,1.73l-0.717,3.591
		C112.337,368.933,111.723,369.416,111.037,369.416"/>
</g>
</svg>
