<?xml version="1.0" encoding="utf-8"?>
<!-- Generator: Adobe Illustrator 16.0.0, SVG Export Plug-In . SVG Version: 6.00 Build 0)  -->
<!DOCTYPE svg PUBLIC "-//W3C//DTD SVG 1.1//EN" "http://www.w3.org/Graphics/SVG/1.1/DTD/svg11.dtd">
<svg version="1.1" id="Layer_1" xmlns="http://www.w3.org/2000/svg" xmlns:xlink="http://www.w3.org/1999/xlink" x="0px" y="0px"
	 width="222.077px" height="196.344px" viewBox="113.971 5.006 222.077 196.344"
	 enable-background="new 113.971 5.006 222.077 196.344" xml:space="preserve">
<g>
	<g>
		<g>
			<defs>
				<path id="SVGID_3_" d="M162.762,86.044v39.961c0,34.793,28.012,63.26,62.247,63.26h0.001c34.236,0,62.247-28.467,62.247-63.26
					v-9.608h-43.081v6.805c0,9.469-7.624,17.217-16.94,17.217h-1.832c-9.319,0-16.942-7.748-16.942-17.217V86.044H162.762z"/>
			</defs>
			<clipPath id="SVGID_4_">
				<use xlink:href="#SVGID_3_"  overflow="visible"/>
			</clipPath>

				<linearGradient id="SVGID_5_" gradientUnits="userSpaceOnUse" x1="0" y1="394.3398" x2="1" y2="394.3398" gradientTransform="matrix(136.7966 -97.5309 -97.5309 -136.7966 38616.0391 54131.1562)">
				<stop  offset="0" style="stop-color:#B58626"/>
				<stop  offset="0.0302" style="stop-color:#BB8A26"/>
				<stop  offset="0.1912" style="stop-color:#D49E24"/>
				<stop  offset="0.36" style="stop-color:#E5AB20"/>
				<stop  offset="0.5484" style="stop-color:#ECB11F"/>
				<stop  offset="0.9758" style="stop-color:#B58626"/>
				<stop  offset="1" style="stop-color:#B58626"/>
			</linearGradient>
			<polygon clip-path="url(#SVGID_4_)" fill="url(#SVGID_5_)" points="113.971,120.831 245.301,27.197 336.048,154.479
				204.718,248.112 	"/>
		</g>
	</g>
</g>
<g>
	<g>
		<path d="M192.394,5.006L170.333,68.8h47.545L192.394,5.006z M184.742,37.082l16.799-0.42l11.541,28.888h-38.185L184.742,37.082z
			 M296.346,84.336l-0.337-0.406c-0.323-0.395-8.137-9.671-23.688-9.671c-15.613,0-22.484,9.351-22.77,9.749l-0.275,0.384v38.526
			c0,9.111-7.408,16.523-16.521,16.523c-9.109,0-16.521-7.412-16.521-16.523V93.425c0-0.441,0.017-0.879,0.052-1.313l-2.932-0.226
			c-0.039,0.509-0.061,1.022-0.061,1.539v29.494c0,10.731,8.73,19.463,19.461,19.463s19.464-8.731,19.464-19.463v-10.162h18.84
			v12.816c0,21.283-17.313,38.598-38.599,38.598c-21.283,0-38.599-17.314-38.599-38.598V94.309c0-0.571,0.015-1.139,0.039-1.705
			l-3.028-0.126c-0.023,0.609-0.039,1.219-0.039,1.831v31.264c0,22.953,18.674,41.627,41.627,41.627s41.627-18.674,41.627-41.627
			v-12.816h19.318l0.002,17.15c0,33.637-27.365,61.002-61.002,61.002c-33.636,0-61.002-27.365-61.002-61.002V92.54h-2.941v37.367
			c0,35.258,28.686,63.94,63.943,63.94s63.941-28.683,63.941-63.94L296.346,84.336z M252.218,85.37
			c1.351-1.63,7.552-8.173,20.105-8.173c12.406,0,19.504,6.589,21.082,8.235v14.602h-41.188V85.37L252.218,85.37z M293.406,109.821
			h-41.188v-6.852h41.188V109.821z"/>
	</g>
</g>
</svg>
