<svg id="Layer_1" data-name="Layer 1" xmlns="http://www.w3.org/2000/svg" xmlns:xlink="http://www.w3.org/1999/xlink" viewBox="0 0 411.71 356.6"><defs><style>.cls-1{fill:url(#linear-gradient);}</style><linearGradient id="linear-gradient" x1="143.33" y1="123.1" x2="262.55" y2="123.1" gradientUnits="userSpaceOnUse"><stop offset="0" stop-color="#b58626"/><stop offset="0.03" stop-color="#bb8a26"/><stop offset="0.19" stop-color="#d49e24"/><stop offset="0.36" stop-color="#e5ab20"/><stop offset="0.55" stop-color="#ecb11f"/><stop offset="0.98" stop-color="#b58626"/><stop offset="1" stop-color="#b58626"/></linearGradient></defs><title>aulogo3</title><path d="M59.1,221.1V260H51.3v-3.8h-.2a10.71,10.71,0,0,1-3,3,7.43,7.43,0,0,1-4.4,1.2,9.86,9.86,0,0,1-2.9-.5,7.08,7.08,0,0,1-2.6-1.6,6.85,6.85,0,0,1-1.8-3,11.57,11.57,0,0,1-.7-4.4V221.1h7.8V248a5.11,5.11,0,0,0,1,3.4,3.48,3.48,0,0,0,2.8,1.2,3.44,3.44,0,0,0,3.1-1.4,7.31,7.31,0,0,0,.8-4V221.1Z"/><path d="M108.2,244.4v3.4a11.21,11.21,0,0,1-1,4.8,13.26,13.26,0,0,1-2.6,4,12.16,12.16,0,0,1-3.9,2.8,11.33,11.33,0,0,1-4.9,1,17.12,17.12,0,0,1-4.5-.6,10.67,10.67,0,0,1-4.1-2.1,12,12,0,0,1-3-3.9,13.93,13.93,0,0,1-1.2-6.2v-30a13.54,13.54,0,0,1,.9-5,11.53,11.53,0,0,1,6.6-6.6,14.48,14.48,0,0,1,5.2-1,11.92,11.92,0,0,1,9,3.6,13,13,0,0,1,2.6,4.2,15,15,0,0,1,1,5.3v3.1h-7.9v-2.8a6.16,6.16,0,0,0-1.3-4,4.26,4.26,0,0,0-3.5-1.7q-2.85,0-3.9,1.8a10.15,10.15,0,0,0-1,4.6V247a7.21,7.21,0,0,0,1,4c.7,1.1,1.9,1.6,3.7,1.6a4.37,4.37,0,0,0,1.6-.3,5.16,5.16,0,0,0,1.6-.9,5.64,5.64,0,0,0,1.2-1.7,6.78,6.78,0,0,0,.5-2.7v-2.6Z"/><path d="M117.2,218.2a13.33,13.33,0,0,1,1.2-5.8,12.13,12.13,0,0,1,3.1-4.2,12.54,12.54,0,0,1,4.2-2.5,12.77,12.77,0,0,1,4.7-.8,14.73,14.73,0,0,1,4.7.8,14.17,14.17,0,0,1,4.3,2.5,13.39,13.39,0,0,1,4.2,10V247a13.2,13.2,0,0,1-1.2,5.9,14,14,0,0,1-3,4.1,12.55,12.55,0,0,1-4.3,2.5,12.77,12.77,0,0,1-4.7.8,14.73,14.73,0,0,1-4.7-.8,12.54,12.54,0,0,1-4.2-2.5,11.79,11.79,0,0,1-3.1-4.1,13.2,13.2,0,0,1-1.2-5.9ZM125,247a5.08,5.08,0,0,0,1.6,4.2,5.31,5.31,0,0,0,9-4.2V218.2A5.08,5.08,0,0,0,134,214a5.31,5.31,0,0,0-9,4.2Z"/><path d="M153.3,259.9V205.3H165a20,20,0,0,1,5.7.8,11.48,11.48,0,0,1,4.4,3,13.1,13.1,0,0,1,2.8,5,31.52,31.52,0,0,1,.8,7.8,36.77,36.77,0,0,1-.4,6.2,14,14,0,0,1-1.8,4.8,11.55,11.55,0,0,1-4.3,4.2,14.42,14.42,0,0,1-7.1,1.5h-4v21.3Zm7.9-47.2v18.6H165a7.62,7.62,0,0,0,3.7-.7,4.36,4.36,0,0,0,1.9-1.9,6.18,6.18,0,0,0,.7-2.8c.1-1.1.1-2.4.1-3.8s0-2.5-.1-3.6a8.22,8.22,0,0,0-.7-3,4.42,4.42,0,0,0-1.8-2,6.82,6.82,0,0,0-3.5-.7h-4.1Z"/><polygon points="191.8 259.9 191.8 236.8 181.1 205.3 189.4 205.3 195.6 227 195.8 227 202.1 205.3 210.4 205.3 199.6 236.8 199.6 259.9 191.8 259.9"/><polygon points="215.8 259.9 215.8 205.3 239.1 205.3 239.1 212.7 223.6 212.7 223.6 228.7 237.1 228.7 237.1 236.1 223.6 236.1 223.6 252.1 239.1 252.1 239.1 259.9 215.8 259.9"/><path d="M247.2,259.9V205.3h11.6c4.5,0,7.9,1.2,10.2,3.7s3.5,5.9,3.5,10.4v25.5c0,5.1-1.2,8.9-3.7,11.3s-6,3.6-10.7,3.6l-10.9.1Zm7.9-47.2v39.9h3.6c2.2,0,3.8-.5,4.7-1.6a8.08,8.08,0,0,0,1.4-5.2V219.4a8.25,8.25,0,0,0-1.3-5q-1.35-1.8-4.8-1.8l-3.6.1Z"/><rect x="283.2" y="205.3" width="7.8" height="54.6"/><polygon points="306.8 259.9 306.8 212.7 297.7 212.7 297.7 205.3 323.7 205.3 323.7 212.7 314.6 212.7 314.6 259.9 306.8 259.9"/><rect x="330.4" y="205.3" width="7.8" height="54.6"/><polygon points="348.6 259.9 348.6 205.3 356.1 205.3 367.9 238.2 368 238.2 368 205.3 375.9 205.3 375.9 259.9 368.5 259.9 356.5 227.1 356.4 227.1 356.4 259.9 348.6 259.9"/><path d="M385.5,218.2a15,15,0,0,1,1.1-5.8,12.13,12.13,0,0,1,3.1-4.2,12.54,12.54,0,0,1,4.2-2.5,12.77,12.77,0,0,1,4.7-.8,14.73,14.73,0,0,1,4.7.8,14.17,14.17,0,0,1,4.3,2.5,12.86,12.86,0,0,1,4.1,10V221h-7.8v-2.8a5.08,5.08,0,0,0-1.6-4.2,5.31,5.31,0,0,0-9,4.2V247a5.08,5.08,0,0,0,1.6,4.2,5.31,5.31,0,0,0,9-4.2V236.7h-6.2v-6.9h14V247a14.73,14.73,0,0,1-1.1,5.9,14,14,0,0,1-3,4.1,12.55,12.55,0,0,1-4.3,2.5,12.77,12.77,0,0,1-4.7.8,14.73,14.73,0,0,1-4.7-.8,12.54,12.54,0,0,1-4.2-2.5,11.79,11.79,0,0,1-3.1-4.1,13.31,13.31,0,0,1-1.1-5.9Z"/><path d="M0,259.9l12.2-54.6h6.5l12.2,54.6H23.1l-2.3-11.7H10.1L7.8,259.9Zm19.3-19.1-3.9-19.7h-.2l-3.8,19.8h7.9Z"/><path class="cls-1" d="M144.06,75.2v37.1c0,32.3,26,58.7,57.7,58.7s57.7-26.4,57.7-58.7v-8.9h-40v6.3a15.92,15.92,0,0,1-15.7,16h-1.7a15.92,15.92,0,0,1-15.7-16V75.2Z"/><path d="M171.9,0,151.4,59.2h44.1Zm-7.1,29.8,15.6-.4,10.7,26.8H155.7ZM268.3,73.6l-.3-.4c-.3-.4-7.5-9-22-9s-20.9,8.7-21.1,9l-.3.4v35.8a15.3,15.3,0,1,1-30.6,0V80.9l-2.7-.2c0,.5-.1.9-.1,1.4v27.3a18.1,18.1,0,1,0,36.2,0V100h17.5v11.9a35.8,35.8,0,0,1-71.6,0V81.3l-2.8-.1v30.7a38.6,38.6,0,0,0,77.2,0V100h17.9v15.9a56.6,56.6,0,0,1-113.2,0V81.2h-2.7v34.7a59.3,59.3,0,0,0,118.6,0Zm-41,1c1.3-1.5,7-7.6,18.6-7.6a27.61,27.61,0,0,1,19.6,7.6V88.1H227.3Zm38.3,22.7H227.4V90.9h38.2Z"/><path d="M169.3,296.5a1.24,1.24,0,0,0-1.7.1l-18.1,20.5-3.6-19.3a1.28,1.28,0,0,0-1-1,1.31,1.31,0,0,0-1.3.5L130,318.5l-.9-24.2a1.19,1.19,0,0,0-1.15-1.21h-.15a1.24,1.24,0,0,0-1.2,1.28v0l1,28.1a1.17,1.17,0,0,0,.9,1.1h.3a1.1,1.1,0,0,0,1-.6l14.1-21.8,3.5,18.7a1.06,1.06,0,0,0,.9.9,1.15,1.15,0,0,0,1.2-.4L169.2,298a.9.9,0,0,0,.36-1.21,1,1,0,0,0-.26-.29m110.9,17.3c-1.2.7-2.4,1.5-3.6,2.3l-1,.7a11.86,11.86,0,0,1,.5-3.6c.1-.5.2-.9.3-1.4.4-2,.7-4.1,1-6.2l.1-.7c.4-2.4.9-6.1-1.1-7.9a3.42,3.42,0,0,0-2.4-.9c-2.1.2-3.9,2.5-5.9,5l-1.1,1.4c-1.5,1.9-4.1,5.1-6.2,7.7.8-4.2,1.8-10,2-11.6a1.21,1.21,0,0,0-2.1-1c-.3.4-.8,1-1.4,1.7-3.5,4.5-12.8,16.3-18.3,16.5a2.78,2.78,0,0,1-2.3-1c-1.3-1.4-.8-5.8,0-8.2.6-1.9,3.2-5.8,4.2-7.1a1.18,1.18,0,0,0-.23-1.65l-.07-.05a1.25,1.25,0,0,0-1.7.2c-.1.1-8.8,11.3-12.5,14.6a10,10,0,0,1-4.6,2.3,3.63,3.63,0,0,1-2.6-.6c-1.9-1.8-1.7-7.1-1.6-9.9V304c.1-2.6,1.3-6,2.6-9.1h23a1.2,1.2,0,1,0,0-2.4H223.3c1.3-2.6,2.3-4.7,2.4-4.9a1.26,1.26,0,0,0-.5-1.6,1.17,1.17,0,0,0-1.59.47v0a52.82,52.82,0,0,0-2.5,5.2c-.1.3-.3.5-.4.8H211a1.2,1.2,0,0,0,0,2.4h8.51c-1.8,3.5-3.7,7.2-5,9.1l-.2.4c-3.4,5.2-7.3,11.2-13.4,12.5a5,5,0,0,1-2.4-.1,3.86,3.86,0,0,1-2-2.3c-1.1-3.1.3-6.2,1.7-9.2l.5-1.2a53.59,53.59,0,0,1,2.6-5.4,1.11,1.11,0,0,0-.4-1.5,1.38,1.38,0,0,0-1.7.3h0c-.4.7-4,7.1-6.2,9.4-3.2,3.5-6.6,7-10.5,9.2a1.21,1.21,0,0,0-.3.2,1.21,1.21,0,0,1-.2-.3c-.6-1.9.5-5.2.8-6.3a45,45,0,0,1,2.2-5.5,1.45,1.45,0,0,0-.1-1.1,1.15,1.15,0,0,0-.9-.6,11.6,11.6,0,0,1-3.1-.9c-.6-.3-.9-1.5-.9-3.9a1.17,1.17,0,0,0-.8-1.1,1.07,1.07,0,0,0-1.3.3c-.6.7-15.1,19.6-18,23.4a1.25,1.25,0,0,0,.2,1.7,1.09,1.09,0,0,0,.7.3,1.39,1.39,0,0,0,1-.5c5.2-6.9,12.6-16.4,16-20.8a4,4,0,0,0,2,2.9,10.8,10.8,0,0,0,2.3.8c-.5,1.3-1.3,3.1-1.7,4.4-.7,2.2-1.5,5.4-.8,7.7a2.78,2.78,0,0,0,2.3,2,3.35,3.35,0,0,0,1.6-.5c4-2.2,7.3-5.6,10.4-8.9a9.24,9.24,0,0,0,.2,5.9,5.86,5.86,0,0,0,3.3,3.7,6.1,6.1,0,0,0,3.8.2c7.1-1.6,11.4-8.2,14.9-13.6l.2-.4a8.44,8.44,0,0,0,.8-1.4h0v.4c-.1,3.4-.4,9.2,2.4,11.8a5.55,5.55,0,0,0,4.6,1.3,11.59,11.59,0,0,0,5.9-2.8,64,64,0,0,0,5.8-6.3c-.5,2.6-.7,6.3,1.1,8.2a5.23,5.23,0,0,0,4.2,1.9c5.4-.2,12.3-7.6,18.6-15.4-.8,4.8-2,11.4-2,11.5a1.21,1.21,0,0,0,2.1,1s6.5-8,9.2-11.3c.4-.5.8-1,1.1-1.4,1.4-1.8,3.1-4,4.2-4.1a.74.74,0,0,1,.6.3c1,.9.5,4.1.3,5.7l-.1.7c-.3,2-.6,4.1-1,6.1-.1.4-.2.8-.3,1.3a11.45,11.45,0,0,0-.4,5.2,1.91,1.91,0,0,0,1.6,1.7,2.07,2.07,0,0,0,1.5-.4l1.5-1c1.2-.8,2.3-1.5,3.5-2.2a1.17,1.17,0,0,0,.47-1.59l-.07-.11a1.31,1.31,0,0,0-1.7-.5m40.3,12.1c-.4-.8-1.8-2-4.2-1.3-1.2.4-3.6,2.2-6,4.3v-6.3c.1-5.6.3-11.5-1.8-17a6.66,6.66,0,0,0-2-3,5.17,5.17,0,0,0-4.4-.7c-4,1.1-7.4,4.8-10.3,8.1-1.1,1.2-2.1,2.3-3,3.2-2,1.9-3.2,1.7-3.4,1.5s-.3-1.1.9-3.1a84.66,84.66,0,0,1,6.9-9.4c1.8-2.2,3.2-3.2,4-3a1.24,1.24,0,0,0,.77-2.36l-.17,0c-2.4-.6-4.6,1.6-6.4,3.8a106.66,106.66,0,0,0-7.1,9.8c-.6,1-2.5,4.2-.6,6.1.9.9,3.4,1.7,6.8-1.5,1-1,2.1-2.1,3.1-3.3,2.7-3,5.8-6.5,9.1-7.4a2.86,2.86,0,0,1,2.3.3,5.34,5.34,0,0,1,1.2,1.9c1.9,5,1.8,10.6,1.6,16v4c0,1.5,0,3-.1,4.5-1.5,1.4-2.9,2.8-3.8,3.7s-1.7,1.8-2.6,2.8c-4,4.2-8.6,8.9-10.6,13.8a4.74,4.74,0,0,0-.3,2.5,3.84,3.84,0,0,0,3.8,2.8h.4c8.2-.8,12.5-11.4,14.4-17.7a37.17,37.17,0,0,0,1.1-6.7c2.8-2.6,5.8-5,6.8-5.3s1.3.1,1.3.2a1.19,1.19,0,0,0,1.6.5,1.24,1.24,0,0,0,.76-1.57l-.06-.13m-13.7,12.3c-1.7,5.7-5.5,15.3-12.3,15.9-.7.1-1.5-.3-1.6-.8a2.18,2.18,0,0,1,.2-1.1c1.8-4.5,6.2-9,10-13,.9-1,1.9-1.9,2.7-2.8l1.7-1.7a13.51,13.51,0,0,1-.7,3.5M202.7,293a1.66,1.66,0,0,0,1.9-.7,1.79,1.79,0,0,0-.9-2,1.35,1.35,0,0,0-1.8.4,1.83,1.83,0,0,0,.8,2.3"/><path d="M206,276.1c2.3-3.7,4.6-7.5,6.9-11.2l-2.2-.3a49,49,0,0,0,4.8,10.1c.8,1.3,2.9.1,2-1.2a49.27,49.27,0,0,1-4.6-9.5,1.22,1.22,0,0,0-1.52-.82,1.26,1.26,0,0,0-.68.52c-2.3,3.7-4.6,7.5-6.9,11.2-.7,1.3,1.4,2.5,2.2,1.2"/><path d="M99.5,297.4a1.37,1.37,0,0,1-1.4-1.34V284.9a1.4,1.4,0,0,1,2.8,0V296a1.37,1.37,0,0,1-1.34,1.4H99.5"/><path d="M94.7,321.5a4.4,4.4,0,0,1-1.2-.1c-1.9-.3-2.6-1.3-2.8-2-.5-1.4.3-3,2.5-5.2,1.4-1.4,4.6-4,7.5-6.4a77.75,77.75,0,0,1-10.8,2c-2,.2-4.5.2-5.2-1.5-.9-2.3,2.2-5,7.1-8.8l.2-.2c4.1-3.2,12.1-5.9,12.4-6a1.36,1.36,0,1,1,.8,2.6c-.1,0-7.8,2.6-11.6,5.6l-.2.2c-1.5,1.2-5.2,4-6.1,5.4a7.37,7.37,0,0,0,2.2,0,95.41,95.41,0,0,0,17-3.9,1.3,1.3,0,0,1,1.6.6,1.28,1.28,0,0,1-.4,1.7c-.1.1-10.2,8-12.8,10.5-1.5,1.5-1.8,2.2-1.8,2.4a4.17,4.17,0,0,0,.6.1c1.7.3,6-.6,8.3-1.3a1.36,1.36,0,0,1,.8,2.6c-.4.4-5,1.7-8.1,1.7"/><path d="M96.4,338.1h-.3a1.44,1.44,0,0,1-1.1-1.6l.7-3.3a1.37,1.37,0,0,1,2.7.5l-.7,3.3a1.38,1.38,0,0,1-1.3,1.1"/></svg>